<?xml version="1.0" encoding="utf-8"?>
<svg version="1.0"
	 xmlns="http://www.w3.org/2000/svg" xmlns:xlink="http://www.w3.org/1999/xlink" x="0px" y="0px" width="800px" height="800px"
	 viewBox="0 0 800 800" enable-background="new 0 0 800 800" xml:space="preserve">
<switch>
	<g>
		<g id="Layer_2" display="none">
			<rect x="-41.5" y="-35.5" display="inline" fill="#555" stroke="#000000" stroke-miterlimit="10" width="800" height="800"/>
		</g>
		<g id="Layer_net" display="none">
			<g id="layner50hor">
				<line fill="none" stroke="#000" stroke-width=".1" x1="50" y1="0" x2="50" y2="800"/>
				<line fill="none" stroke="#000" stroke-width=".1" x1="100" y1="0" x2="100" y2="800"/>
				<line fill="none" stroke="#000" stroke-width=".1" x1="150" y1="0" x2="150" y2="800"/>
				<line fill="none" stroke="#000" stroke-width=".1" x1="200" y1="0" x2="200" y2="800"/>
				<line fill="none" stroke="#000" stroke-width=".1" x1="250" y1="0" x2="250" y2="800"/>
				<line fill="none" stroke="#000" stroke-width=".1" x1="300" y1="0" x2="300" y2="800"/>
				<line fill="none" stroke="#000" stroke-width=".1" x1="350" y1="0" x2="350" y2="800"/>
				<line fill="none" stroke="#000" stroke-width=".1" x1="400" y1="0" x2="400" y2="800"/>
				<line fill="none" stroke="#000" stroke-width=".1" x1="450" y1="0" x2="450" y2="800"/>
				<line fill="none" stroke="#000" stroke-width=".1" x1="500" y1="0" x2="500" y2="800"/>
				<line fill="none" stroke="#000" stroke-width=".1" x1="550" y1="0" x2="550" y2="800"/>
				<line fill="none" stroke="#000" stroke-width=".1" x1="600" y1="0" x2="600" y2="800"/>
				<line fill="none" stroke="#000" stroke-width=".1" x1="650" y1="0" x2="650" y2="800"/>
				<line fill="none" stroke="#000" stroke-width=".1" x1="700" y1="0" x2="700" y2="800"/>
				<line fill="none" stroke="#000" stroke-width=".1" x1="750" y1="0" x2="750" y2="800"/>
				<line fill="none" stroke="#000" stroke-width=".1" x1="800" y1="0" x2="800" y2="800"/>
			</g>
			<g id="layner40vert">
				<line fill="none" stroke="#000" stroke-width=".1" x1="0" y1="40" x2="800" y2="40"/>
				<line fill="none" stroke="#000" stroke-width=".1" x1="0" y1="80" x2="800" y2="80"/>
				<line fill="none" stroke="#000" stroke-width=".1" x1="0" y1="120" x2="800" y2="120"/>
				<line fill="none" stroke="#000" stroke-width=".1" x1="0" y1="160" x2="800" y2="160"/>
				<line fill="none" stroke="#000" stroke-width=".1" x1="0" y1="200" x2="800" y2="200"/>
				<line fill="none" stroke="#000" stroke-width=".1" x1="0" y1="240" x2="800" y2="240"/>
				<line fill="none" stroke="#000" stroke-width=".1" x1="0" y1="280" x2="800" y2="280"/>
				<line fill="none" stroke="#000" stroke-width=".1" x1="0" y1="320" x2="800" y2="320"/>
				<line fill="none" stroke="#000" stroke-width=".1" x1="0" y1="360" x2="800" y2="360"/>
				<line fill="none" stroke="#000" stroke-width=".1" x1="0" y1="400" x2="800" y2="400"/>
				<line fill="none" stroke="#000" stroke-width=".1" x1="0" y1="440" x2="800" y2="440"/>
				<line fill="none" stroke="#000" stroke-width=".1" x1="0" y1="480" x2="800" y2="480"/>
				<line fill="none" stroke="#000" stroke-width=".1" x1="0" y1="520" x2="800" y2="520"/>
				<line fill="none" stroke="#000" stroke-width=".1" x1="0" y1="560" x2="800" y2="560"/>
				<line fill="none" stroke="#000" stroke-width=".1" x1="0" y1="600" x2="800" y2="600"/>
				<line fill="none" stroke="#000" stroke-width=".1" x1="0" y1="640" x2="800" y2="640"/>
				<line fill="none" stroke="#000" stroke-width=".1" x1="0" y1="680" x2="800" y2="680"/>
				<line fill="none" stroke="#000" stroke-width=".1" x1="0" y1="720" x2="800" y2="720"/>
				<line fill="none" stroke="#000" stroke-width=".1" x1="0" y1="760" x2="800" y2="760"/>
				<line fill="none" stroke="#000" stroke-width=".1" x1="0" y1="800" x2="800" y2="800"/>
			</g>
		</g>
		<g id="Layer_1">
			<g id="car">
				<path id="path7" fill="#ACAEB1" stroke="#ACAEB1" stroke-width="0.4" d="M65.185,24.85h-2.927v-9.634c0,0,0-1,1-1.062
					c6.463,0.024,14.525,0.052,21.592,0c0.76,0,1,0.6,1,1.263c0,1.797,0,6.566,0,6.566h1.7v-1.136h1.196v4.731h-1.2v-1.244h-1.522
					v0.554h-2.429c0,0,0,0.6,0,1.132c0,1.516-1.105,2.185-2.147,2.162c-1.056,0-2-0.5-2-1.9c0-0.76,0.112-1.326,0.112-1.326H68.919
					c0,0,0,0.65,0,1.367c-0.1,1.296-1,1.901-1.957,1.894c-0.952,0-1.884-0.5-2-2c0-0.8,0.156-1.277,0.156-1.277L65.185,24.85z"/>
				<g enable-background="new">
					<path fill="#FFFFFF" d="M73.489,22.045l-0.354-4.173v-1.746h1.438v1.746l-0.335,4.173H73.489z M73.186,24v-1.101h1.334V24 H73.186z"/>
				</g>
			</g>
			<g id="eTicket">
				<path id="path14" fill="#ACAEB1" stroke="#ACAEB1" stroke-width="0.4" d="M113.1,11.206c4.563,0,18.822,0,23.85,0
					c0,1.808,2.063,3.569,3.841,3.617c0,3.743,0,9.115,0,11.238c-1.665,0-3.738,1.952-3.781,3.796c-1.47,0-20.12,0-23.909,0
					c0-1.901-0.986-3.881-3.788-3.877c0-2.72,0-8.365,0-11.349c2.742,0,3.75-1.545,3.849-3.32L113.1,11.206z"/>
				<g enable-background="new">
					<path fill="#FFFFFF" d="M123.04,23.449c-0.229,0.259-0.486,0.468-0.77,0.625c-0.284,0.158-0.569,0.236-0.855,0.236
						c-0.314,0-0.619-0.09-0.916-0.27c-0.297-0.18-0.538-0.457-0.723-0.83c-0.186-0.374-0.278-0.784-0.278-1.23
						c0-0.55,0.144-1.101,0.431-1.653s0.645-0.966,1.072-1.243c0.427-0.277,0.842-0.415,1.244-0.415c0.307,0,0.6,0.079,0.879,0.236
						c0.278,0.157,0.519,0.397,0.72,0.719l0.18-0.805h0.947l-0.762,3.482c-0.106,0.484-0.159,0.752-0.159,0.804
						c0,0.093,0.036,0.174,0.108,0.241c0.072,0.068,0.16,0.102,0.262,0.102c0.187,0,0.432-0.105,0.735-0.317
						c0.402-0.277,0.721-0.647,0.956-1.113s0.352-0.945,0.352-1.44c0-0.578-0.151-1.117-0.453-1.619
						c-0.302-0.501-0.751-0.903-1.35-1.204c-0.598-0.301-1.259-0.451-1.982-0.451c-0.826,0-1.58,0.189-2.263,0.568
						c-0.683,0.378-1.212,0.922-1.588,1.629c-0.375,0.708-0.563,1.466-0.563,2.275c0,0.848,0.188,1.578,0.563,2.19
						c0.376,0.613,0.919,1.065,1.63,1.357c0.711,0.292,1.499,0.438,2.364,0.438c0.924,0,1.699-0.152,2.324-0.457
						c0.625-0.305,1.092-0.675,1.403-1.111h0.958c-0.18,0.363-0.489,0.733-0.926,1.111c-0.438,0.377-0.958,0.675-1.562,0.895
						c-0.604,0.22-1.331,0.33-2.181,0.33c-0.783,0-1.506-0.099-2.167-0.296s-1.226-0.494-1.691-0.89s-0.817-0.852-1.053-1.367
						c-0.296-0.654-0.445-1.36-0.445-2.118c0-0.844,0.177-1.648,0.529-2.413c0.431-0.938,1.042-1.655,1.834-2.153
						c0.792-0.499,1.753-0.748,2.882-0.748c0.875,0,1.661,0.176,2.358,0.527s1.247,0.875,1.649,1.57
						c0.342,0.599,0.514,1.249,0.514,1.951c0,1.003-0.36,1.894-1.08,2.673c-0.642,0.699-1.345,1.048-2.107,1.048
						c-0.243,0-0.44-0.037-0.59-0.109c-0.15-0.072-0.26-0.176-0.331-0.311C123.095,23.809,123.062,23.66,123.04,23.449z
						 M120.478,22.042c0,0.474,0.115,0.843,0.344,1.105c0.229,0.263,0.492,0.395,0.789,0.395c0.198,0,0.406-0.058,0.625-0.174
						s0.428-0.288,0.627-0.517c0.199-0.228,0.363-0.518,0.49-0.869s0.19-0.703,0.19-1.056c0-0.47-0.119-0.835-0.357-1.095
						c-0.238-0.26-0.528-0.389-0.871-0.389c-0.226,0-0.438,0.056-0.638,0.168c-0.2,0.112-0.393,0.293-0.58,0.542
						c-0.188,0.249-0.337,0.552-0.45,0.908C120.535,21.418,120.478,21.745,120.478,22.042z"/>
				</g>
				<line id="line20" fill="none" stroke="#FFFFFF" stroke-width="0.5" x1="133" y1="15" x2="133" y2="18"/>
				<line id="line22" fill="none" stroke="#FFFFFF" stroke-width="0.5" x1="133" y1="19" x2="133" y2="22"/>
				<line id="line24" fill="none" stroke="#FFFFFF" stroke-width="0.5" x1="133" y1="23" x2="133" y2="26"/>
			</g>
			<g id="table">
				<polyline id="polyline27" fill="none" stroke="#ACAEB1" stroke-width="1.5" points="163,21 171,13 177,15 185,8"/>
				<line id="line29" fill="none" stroke="#ACAEB1" stroke-width="4" x1="165" y1="28" x2="165" y2="31"/>
				<line id="line31" fill="none" stroke="#ACAEB1" stroke-width="4" x1="171" y1="20" x2="171" y2="31"/>
				<line id="line33" fill="none" stroke="#ACAEB1" stroke-width="4" x1="177" y1="23" x2="177" y2="31"/>
				<line id="line35" fill="none" stroke="#ACAEB1" stroke-width="4" x1="183" y1="16" x2="183" y2="31"/>
			</g>
			<g id="WiFi">
				<path id="path38" fill="#A7A9AC" stroke="#A7A9AC" stroke-width="0.4" d="M211.87,14.712c1.52-0.873,3.721-0.717,5.22-0.6
					c1.294-2.46,3.878-3.934,6.975-4.122c3.096-0.2,7.251,0.683,9.47,4.041c2.22,3.357,2.105,10.51,0,13.853
					c-2,3.342-5.731,4.378-8.847,4.267c-3.114-0.111-6.526-2.232-7.702-4.419c-1.226,0.186-2.731,0.249-3.967-0.23
					c-1.476-0.573-2.979-1.579-3.684-2.997c-0.912-1.843-0.694-4.673-0.196-6.167s1.419-2.85,2.724-3.599L211.87,14.712z"/>
				<path id="path40" fill="#FFFFFF" stroke="#A7A9AC" stroke-width="0.7" d="M222.5,27.188c0,0,1.964-2.217,2.723-3.259
					c0.224-0.997,0.243-5,0.313-7.188c0.07-0.955,1.311-1.863,2.724-2.232c3.32-0.063,6.729,0,9.107,0
					c1.156-0.132,3.037,1.729,3.169,3.036c0.084,2.203,0,4.151,0,6.563c-0.174,1.352-0.699,2.829-2.366,3.036
					C233.169,27.343,222.5,27.188,222.5,27.188L222.5,27.188z"/>
				<g enable-background="new    ">
					<path fill="#FFFFFF" d="M214.152,23.888l-1.695-6.389h0.867l0.972,4.188c0.104,0.439,0.194,0.875,0.27,1.308
						c0.163-0.683,0.259-1.076,0.288-1.181l1.216-4.314h1.02l0.915,3.233c0.229,0.802,0.395,1.556,0.497,2.262
						c0.081-0.403,0.188-0.867,0.318-1.39l1.002-4.105h0.85l-1.752,6.389h-0.815l-1.347-4.868c-0.113-0.406-0.18-0.656-0.201-0.749
						c-0.067,0.293-0.129,0.543-0.188,0.749l-1.355,4.868H214.152z"/>
					<path fill="#FFFFFF" d="M221.365,18.4v-0.901h0.784V18.4H221.365z M221.365,23.888V19.26h0.784v4.628H221.365z"/>
				</g>
				<g enable-background="new    ">
					<path fill="none" stroke="#FFFFFF" stroke-width="0.456" d="M214.152,23.888l-1.695-6.389h0.867l0.972,4.188
						c0.104,0.439,0.194,0.875,0.27,1.308c0.163-0.683,0.259-1.076,0.288-1.181l1.216-4.314h1.02l0.915,3.233
						c0.229,0.802,0.395,1.556,0.497,2.262c0.081-0.403,0.188-0.867,0.318-1.39l1.002-4.105h0.85l-1.752,6.389h-0.815l-1.347-4.868
						c-0.113-0.406-0.18-0.656-0.201-0.749c-0.067,0.293-0.129,0.543-0.188,0.749l-1.355,4.868H214.152z"/>
					<path fill="none" stroke="#FFFFFF" stroke-width="0.456" d="M221.365,18.4v-0.901h0.784V18.4H221.365z M221.365,23.888V19.26
						h0.784v4.628H221.365z"/>
				</g>
				<g enable-background="new    ">
					<path fill="#A7A9AC" d="M224.51,23.259v-5.769h5.837v0.681h-4.692v1.787h4.061v0.681h-4.061v2.621H224.51z"/>
					<path fill="#A7A9AC" d="M231.705,18.305v-0.814h1.063v0.814H231.705z M231.705,23.259v-4.179h1.063v4.179H231.705z"/>
				</g>
				<g enable-background="new    ">
					<path fill="none" stroke="#A7A9AC" stroke-width="0.8651" d="M224.51,23.259v-5.769h5.837v0.681h-4.692v1.787h4.061v0.681
						h-4.061v2.621H224.51z"/>
					<path fill="none" stroke="#A7A9AC" stroke-width="0.8651" d="M231.705,18.305v-0.814h1.063v0.814H231.705z M231.705,23.259
						v-4.179h1.063v4.179H231.705z"/>
				</g>
			</g>
            <g
             id="carVagon"
             transform="matrix(0.1,0,0,-0.1,282,24)"><path
               d="m 0,0 c -8.4,0 -15.2,6.9 -15.2,15.3 0,8.4 6.8,15.3 15.2,15.3 8.4,0 15.3,-6.9 15.3,-15.3 C 15.3,6.9 8.4,0 0,0 m -141.1,47 c 0,0 12.1,28.79 14.6,34.68 2.3,5.65 5.2,7.75 10.3,7.75 l 89.8,0 c 5.1,0 7.9,-2.1 10.3,-7.75 C -13.7,75.79 -1.5,47 -1.5,47 Z m -1.6,-47 c -8.4,0 -15.2,6.9 -15.2,15.3 0,8.4 6.8,15.3 15.2,15.3 8.4,0 15.3,-6.9 15.3,-15.3 0,-8.4 -6.9,-15.3 -15.3,-15.3 m 176,23.1 c 0,10.9 -7.4,20 -17.4,22.7 0,0 -16.2,38.5 -18.7,44.6 -3.8,8.84 -10.4,14.84 -22.9,14.84 l -26.2,0 -40.7,0 -24.4,0 c -12.5,0 -19.1,-6 -22.8,-14.84 -2.5,-6.1 -18.7,-44.6 -18.7,-44.6 -10,-2.7 -17.4,-11.8 -17.4,-22.7 l 0,-55.2 18.2,0 c 0,0 -0.2,-13.6 -0.2,-18.2 0,-8.5 6.8,-15.3 15.2,-15.3 8.4,0 15.3,6.8 15.3,15.3 l 0,18.2 112.2,0 0,-18.2 c 0,-8.5 6.8,-15.3 15.2,-15.3 8.4,0 15.3,6.8 15.3,15.3 0,4.6 -0.2,18.2 -0.2,18.2 l 18.2,0 0,55.2"
               style="fill:#acaeb1;fill-opacity:1;fill-rule:nonzero;stroke:none"
               id="path1784" />
            </g>

			<g id="cooking">
				<path id="path60" fill="#A7A9AC" stroke="#A7A9AC" d="M311.428,26.071c0,0,1.103-12.549,13.572-12.678
					c12.469-0.13,13.928,13.036,13.928,13.036L311.428,26.071z"/>
				<path id="path62" fill="none" stroke="#FFFFFF" d="M315.316,22.705c1.1-2.222,3.503-5.324,6.034-6.402"/>
				<line id="line64" fill="none" stroke="#ACAEB1" stroke-width="2" x1="310" y1="29" x2="340.5" y2="29"/>
				<circle id="circle66" fill="#ACAEB1" cx="325" cy="11" r="1.4"/>
			</g>
			<g id="pets">
				<path id="path69" fill="#A7A9AC" stroke="#A7A9AC" d="M367.064,30.484c-1.768-3.26,2.251-4.209,3.536-6.188
					c1.284-1.978-0.119-5.827,4.166-5.745c4.286,0.083,3.125,3.671,4.42,5.619c1.295,1.948,4.792,2.249,3.346,6.124
					c-1.445,3.875-5.121,0.364-7.702,0.379C372.249,30.688,368.832,33.744,367.064,30.484L367.064,30.484z"/>

					<ellipse id="ellipse71" transform="matrix(-0.3419 -0.9397 0.9397 -0.3419 472.1376 372.1401)" fill="#A7A9AC" cx="366.37" cy="20.756" rx="4" ry="3"/>

					<ellipse id="ellipse73" transform="matrix(0.342 -0.9397 0.9397 0.342 232.9104 374.1486)" fill="#A7A9AC" cx="383.63" cy="20.756" rx="4" ry="2.999"/>

					<ellipse id="ellipse75" transform="matrix(0.342 -0.9397 0.9397 0.342 232.9104 374.1486)" fill="#A7A9AC" cx="383.63" cy="20.756" rx="4" ry="2.999"/>

					<ellipse id="ellipse77" transform="matrix(0.1737 -0.9848 0.9848 0.1737 299.2045 384.6088)" fill="#A7A9AC" cx="378.793" cy="14.007" rx="4" ry="3"/>

					<ellipse id="ellipse79" transform="matrix(-0.1737 -0.9848 0.9848 -0.1737 421.8896 382.004)" fill="#A7A9AC" cx="371.207" cy="14.007" rx="4" ry="3"/>
			</g>
			<g id="cassa">
				<path id="path82" fill="#A7A9AC" stroke="#A7A9AC" d="M409.427,29.537l0.063-6.692l2.967-4.861v-7.45l24.181-0.126v7.576
					l2.841,4.798l-0.063,6.755H409.427z"/>
				<line id="line84" fill="none" stroke="#FFFFFF" stroke-width="2" x1="415.5" y1="13.5" x2="433.5" y2="13.5"/>
				<g id="g86">
					<line id="line88" fill="none" stroke="#FFFFFF" stroke-width="2" x1="415" y1="20" x2="417" y2="20"/>
					<line id="line90" fill="none" stroke="#FFFFFF" stroke-width="2" x1="420.5" y1="20" x2="422.5" y2="20"/>
					<line id="line92" fill="none" stroke="#FFFFFF" stroke-width="2" x1="426" y1="20" x2="428" y2="20"/>
					<line id="line94" fill="none" stroke="#FFFFFF" stroke-width="2" x1="432" y1="20" x2="434" y2="20"/>
				</g>
				<line id="line96" fill="none" stroke="#FFFFFF" x1="411.5" y1="23.5" x2="437.5" y2="23.5"/>
				<line id="line98" fill="none" stroke="#FFFFFF" stroke-width="2" x1="420" y1="27" x2="429" y2="27"/>
			</g>
			<g id="money">
				<rect id="rect101" x="458" y="10" fill="#A7A9AC" width="27" height="16"/>
				<rect id="rect103" x="456.5" y="11.5" fill="#A7A9AC" stroke="#FFFFFF" stroke-width="0.7" width="27" height="16.5"/>
				<rect id="rect105" x="466.5" y="8.5" fill="#A7A9AC" stroke="#FFFFFF" stroke-width="0.7" width="7" height="21"/>
				<polyline id="polyline107" fill="none" stroke="#FFFFFF" stroke-width="0.5" points="461,14 459,14 459,16 				"/>
				<polyline id="polyline109" fill="none" stroke="#FFFFFF" stroke-width="0.5" points="479,14 481,14 481,16 				"/>
				<polyline id="polyline111" fill="none" stroke="#FFFFFF" stroke-width="0.5" points="479,26 481,26 481,24 				"/>
				<polyline id="polyline113" fill="none" stroke="#FFFFFF" stroke-width="0.5" points="459,24 459,26 461,26 				"/>
				<path id="path115" fill="#A7A9AC" stroke="#A7A9AC" stroke-width="0.5" d="M487.5,17.5h3.5V15l4,3.25L491,22v-2.5h-3.5V17.5z"/>
			</g>
			<path id="path118" fill="none" stroke="#A7A9AC" stroke-width="2" stroke-opacity="0.902" d="M8.302,56.685l2.968,11.648h0.694
				l2.305-9.8l0.757-0.032l2.2,9.849h0.8l3-11.6"/>
			<path id="path120" fill="none" stroke="#A8AAAC" stroke-width="2" stroke-opacity="0.9961" d="M31.883,57.316
				c0,0-4.07,0.017-5.998,0c-1.263,0.143-1.199,1.705-1.199,1.705s0,5.294,0,7c0,0.735,0.216,1.68,1.263,1.957
				c1.394,0,5.903,0,5.903,0"/>
			<path fill="#A8AAAC" fill-opacity="0.9961" stroke="#A8AAAC" stroke-width="0.5" stroke-opacity="0.9961" d="M41.196,57.032
				c0,0-3.87,0.113-5.24-1.073c-1.022-0.885-1.663-2.541-1.831-3.883c-0.114-0.913,0.411-2.209-0.348-3.409s-1.737-1.11-2.651-0.884
				c0.63-1.073,2.094-1.897,3.409-2.178c1.49-0.318,3.374-0.295,4.609,0.41c1.794,1.025,2.877,2.252,3.788,3.788
				c0.726,1.227,1.081,2.666,0.852,4.072c-0.095,0.582-0.538,1.404-0.979,1.993c-1.725-3.398-4.168-6.369-7.727-8.396
				c3.14,3.523,5.316,5.933,6.756,9.382c0.178,0.796,0.877,3.775,0.877,3.775l-1.136,0.221L41.196,57.032z"/>
			<g id="bear">
				<circle id="circle127" fill="#A7A9AC" cx="68" cy="49.5" r="2.3"/>
				<circle id="circle129" fill="#A7A9AC" cx="78" cy="49.5" r="2.3"/>
				<circle id="circle131" fill="#A7A9AC" cx="65.5" cy="59" r="1.8"/>
				<circle id="circle133" fill="#A7A9AC" cx="66.5" cy="71" r="1.8"/>
				<circle id="circle135" fill="#A7A9AC" cx="80.5" cy="59" r="1.8"/>
				<circle id="circle137" fill="#A7A9AC" cx="79.5" cy="71" r="1.8"/>
				<circle id="circle139" fill="#A7A9AC" cx="73" cy="54" r="4.7"/>
				<circle id="circle141" fill="#A7A9AC" cx="73" cy="64.5" r="7.5"/>
				<circle id="circle143" fill="#FFFFFF" cx="73" cy="56" r="1.7"/>
				<circle id="circle145" fill="#A7A9AC" cx="73" cy="55.5" r="0.8"/>
				<circle id="circle147" fill="#FFFFFF" cx="73" cy="65" r="4.5"/>
			</g>
			<g id="pacifier">
				<circle id="circle150" fill="#A7A9AC" cx="124" cy="66" r="6"/>
				<circle id="circle152" fill="#FFFFFF" cx="124" cy="66" r="4.5"/>
				<ellipse id="ellipse154" fill="#A7A9AC" cx="124" cy="60.5" rx="9.5" ry="2.5"/>
				<path id="path156" fill="#A7A9AC" stroke="#A7A9AC" stroke-width="0.4" d="M122.41,58.169c0,0-0.791-3.326-2-6.205
					c-0.881-3.028,1.552-4.674,3.616-4.688c2.065-0.014,4.129,1.682,3.215,4.777c-0.915,2.38-1.697,6.205-1.697,6.205L122.41,58.169
					z"/>
				<path id="path158" fill="#FFFFFF" d="M122.813,54.241c-0.838-1.047-1.083-2.131-1.027-3.125
					c0.049-0.855,0.265-1.814,0.982-2.411C122.593,50.608,122.534,52.118,122.813,54.241L122.813,54.241z"/>
			</g>
			<g id="snowflake">
				<line id="line161" fill="none" stroke="#ACAEB1" stroke-width="1.2" x1="174.5" y1="48" x2="174.5" y2="73"/>
				<line id="line163" fill="none" stroke="#ACAEB1" stroke-width="1.2" x1="163" y1="60.5" x2="186" y2="60.5"/>
				<line id="line165" fill="none" stroke="#ACAEB1" stroke-width="1.5" x1="166.5" y1="52.5" x2="182.5" y2="68.5"/>
				<line id="line167" fill="none" stroke="#ACAEB1" stroke-width="1.5" x1="166.5" y1="68.5" x2="182.5" y2="52.5"/>
				<polyline id="polyline169" fill="none" stroke="#ACAEB1" stroke-width="1.2" points="170.5,49.5 174.5,54 178.5,49.5 				"/>
				<polyline id="polyline171" fill="none" stroke="#ACAEB1" stroke-width="1.2" points="170.5,71.5 174.5,67.5 178.5,71.5 				"/>
				<polyline id="polyline173" fill="none" stroke="#ACAEB1" stroke-width="1.2" points="163.5,56.5 167.5,60.5 163.5,64.5 				"/>
				<polyline id="polyline175" fill="none" stroke="#ACAEB1" stroke-width="1.2" points="185.5,56.5 182,60.5 185.5,64.5 				"/>
			</g>
			<g id="pillow">
				<path id="path178" fill="#ACAEB1" stroke="#ACAEB1" stroke-width="0.3" d="M212.385,69.627c0.516-5.3,0.549-14.399,0-20.266
					c8.072,0.579,16.98,0.718,25.442-0.063c-0.731,6.335-0.805,14.626,0.063,20.329C228.91,68.768,220.576,68.877,212.385,69.627
					L212.385,69.627z"/>
				<path id="path180" fill="#ACAEB1" stroke="#ACAEB1" stroke-width="0.4" d="M211.059,59.589
					c-0.097-7.1,7.315-10.91,14.079-10.859c6.764,0.051,13.786,3.762,13.826,10.102c0.04,6.34-7.402,11.05-14.079,11.049
					S211.156,66.689,211.059,59.589z"/>
				<path id="path182" fill="#FFFFFF" d="M217.436,54.412c-1.232,3.741-0.776,7.415-0.316,10.291
					C213.791,61.96,213.743,56.479,217.436,54.412z"/>
			</g>
			<g id="docs">
				<path id="path185" fill="#A7A9AC" stroke="#A7A9AC" stroke-width="0.3" d="M264.533,49.55l19-0.063v22.034
					c0,0-11.401,0-16.856,0c-1.121,0.054-2.025-0.428-2.21-1.831c-0.037-5.828,0.063-20.14,0.063-20.14H264.533z"/>
				<path id="path187" fill="none" stroke="#A7A9AC" stroke-width="1.5" d="M283.448,70.909c2.041,0.117,2.712-0.835,2.829-2.448
					c-0.041-3.515-0.089-18.185-0.089-18.185"/>
				<rect id="rect189" x="266.869" y="51.792" fill="#FFFFFF" width="7.229" height="7.261"/>
				<line id="line191" fill="none" stroke="#FFFFFF" x1="276" y1="52.5" x2="281" y2="52.5"/>
				<line id="line193" fill="none" stroke="#FFFFFF" x1="276" y1="55.5" x2="281" y2="55.5"/>
				<line id="line195" fill="none" stroke="#FFFFFF" x1="276" y1="58.5" x2="281" y2="58.5"/>
				<line id="line197" fill="none" stroke="#FFFFFF" x1="267" y1="61.5" x2="281" y2="61.5"/>
				<line id="line199" fill="none" stroke="#FFFFFF" x1="267" y1="64.5" x2="281" y2="64.5"/>
				<line id="line201" fill="none" stroke="#FFFFFF" x1="267" y1="67.5" x2="281" y2="67.5"/>
			</g>
			<g id="nosmoke">
				<circle id="circle224" fill="none" stroke="#A7A9AC" stroke-width="1.5" cx="374.5" cy="60" r="11.5"/>
				<line id="line226" fill="none" stroke="#A7A9AC" stroke-width="3.2" x1="367" y1="61" x2="378.5" y2="61"/>
				<line id="line228" fill="none" stroke="#A7A9AC" stroke-width="3.2" x1="379.5" y1="61" x2="380.5" y2="61"/>
				<path id="path230" fill="none" stroke="#A7A9AC" stroke-width="0.6" d="M381.607,60.625c0,0,0.858-1.841,0.625-2.522
					c-0.354-1.035-1.73-1.544-1.83-2.634c-0.105-1.151,1.518-2.7,1.518-2.7"/>
				<line id="line232" fill="none" stroke="#A7A9AC" stroke-width="1.5" x1="366" y1="52.5" x2="382.5" y2="68.5"/>
			</g>
			<g id="ferry">
				<path id="path5580" fill="#A7A9AC" d="M418.747,55.382h4.791c0,0,0-0.412,0-0.7c0.765-0.288,2.614-0.283,3.372,0
					c0,0.365,0,0.74,0,0.74h4.563v1.974h2.015v1.48h-1.109c0,0-0.027,3.847-0.229,5.921c-0.622,1.435-4.601,1.636-6.927,1.645
					c-2.5-0.049-6.449-0.171-7.277-1.727c-0.087-1.73-0.206-5.715-0.206-5.715l-1.052-0.036l-0.059-1.608h2.015L418.747,55.382z"/>
				<path id="path5582" fill="#A7A9AC" d="M418.778,57.373l-0.072-6.062l1.963-0.043l0.072-2.108h8.767l0.116,1.948l2.035,0.029
					l-0.059,6.164l-1.729-1.978l0.015-2.5l-9.362-0.015v2.544L418.778,57.373z"/>
				<path id="ferryWave" fill="none" stroke="#A7A9AC" stroke-width="1.5" d="M413.884,67.031c0,0,1.411-1.265,2.276-1.25
					c1.385,0.023,2.188,2.137,3.571,2.121c1.458-0.018,2.249-2.372,3.706-2.321c1.352,0.047,1.929,2.356,3.281,2.388
					c1.46,0.034,2.199-2.446,3.66-2.411c1.336,0.033,1.9,2.333,3.236,2.366c0.784,0.019,1.965-1.295,1.965-1.295"/>
				<g id="use240" transform="translate(0,3)">
					<path id="ferryWave_1_" fill="none" stroke="#A7A9AC" stroke-width="1.5" d="M413.884,70.031c0,0,1.411-1.265,2.276-1.25
						c1.385,0.023,2.188,2.137,3.571,2.121c1.458-0.018,2.249-2.372,3.706-2.321c1.352,0.047,1.929,2.356,3.281,2.388
						c1.46,0.034,2.199-2.446,3.66-2.411c1.336,0.033,1.9,2.333,3.236,2.366c0.784,0.019,1.965-1.295,1.965-1.295"/>
				</g>
			</g>
			<g id="cripple" transform="matrix(1 0 0 -1 472 61)">
				<path d="M-1.1 12.5c1.4 0 2.5-1.1 2.5-2.5 0-1.4-1.1-2.5-2.5-2.5 -1.4 0-2.5 1.1-2.5 2.5C-3.5 11.4-2.4 12.5-1.1 12.5z" fill="#A7A9AC"/>
				<path d="M2.8-6.4c-0.7-2.3-2.8-3.9-5.2-3.9 -3 0-5.4 2.4-5.4 5.4 0 2.2 1.3 4.1 3.3 5v2.3c-3.1-0.9-5.4-3.9-5.4-7.3 0-4.2 3.4-7.6 7.6-7.6 3.1 0 5.7 1.8 6.9 4.4l-0.9 1.7C3.3-6.4 3.1-6.4 2.8-6.4z" fill="#A7A9AC"/>
				<path d="M9.9-9.3L6.6-2.8C6.4-2.3 5.9-2 5.3-2h-4.2v1h3.6c0.4 0 0.7 0.2 0.9 0.5C5.7-0.4 5.8-0.2 5.8 0c0 0.6-0.5 1.1-1.1 1.1H1.1v3.3c0 0.9-0.7 2.2-2.2 2.2 -1.2 0-2.2-1-2.2-2.2v-7.1c0-1.2 1-2.2 2.2-2.2h5.5l2.9-5.7c0.3-0.5 0.8-0.8 1.3-0.8 0.2 0 0.4 0.1 0.7 0.2C10-10.9 10.3-10 9.9-9.3z" fill="#A7A9AC"/>
			</g>
			<g id="attention" transform="matrix(1 0 0 -1 508 76)">
				<path d="m 4.4,19.04 -2.2,4.685 5.5,0.598 0.3,5.584 5.1,-2.393 3.4,4.486 3,-4.486 4.7,2.293 0.4,-5.583 5.5,-0.1 -2,-4.586 L 32,16.05 27.8,12.661 30.5,7.976 24.8,7.478 24.3,1.995 19.5,4.288 16.2,0 13.1,4.386 8.1,1.794 7.8,7.477 2.2,7.776 4.3,13.159 0,15.751 Z M 6.163,12.432 5.068,9.625 7.906,9.473 9.702,9.377 9.797,7.581 9.933,4.997 l 2.246,1.164 1.548,0.802 1.006,-1.424 1.536,-2.173 1.646,2.139 0.987,1.282 1.46,-0.697 2.207,-1.054 0.239,2.621 0.152,1.665 1.666,0.146 2.575,0.225 -1.134,1.968 -0.854,1.481 1.331,1.074 2.369,1.911 -2.146,1.92 -1.078,0.964 0.578,1.326 0.803,1.841 -2.506,0.045 -1.828,0.033 -0.131,1.824 -0.188,2.63 -2.04,-0.995 -1.569,-0.765 -0.97,1.451 -1.439,2.152 -1.704,-2.249 -0.978,-1.29 -1.466,0.688 L 9.838,26.834 9.697,24.215 9.606,22.518 7.916,22.334 5.201,22.04 6.21,19.89 6.903,18.414 5.597,17.438 3.578,15.928 5.332,14.871 6.775,14.001 Z" style="fill:#acaeb1;fill-opacity:1" />
				<path d="m 16.009,22.256 c 0.986,0 1.626,-0.713 1.626,-1.662 -0.019,-0.969 -0.658,-1.662 -1.626,-1.662 -0.968,0 -1.644,0.693 -1.644,1.662 0,0.949 0.657,1.662 1.644,1.662 z" id="path22" style="fill:#acaeb1;fill-opacity:1" />
				<rect style="fill:#acaeb1;fill-opacity:1;stroke-width:0.93697375" id="rect839" width="2.6233742" height="8.5975561" x="14.682761" y="8.4289846" />
			</g>

			<g id="information" transform="matrix(1 0 0 -1 558 76)">
				<circle id="circle310" fill="#acaeb1" cx="16" cy="15.5" r="12"/>
				<circle id="circle310" fill="#FFF" cx="16" cy="15.5" r="10"/>
				<path d="m 16.009,22.256 c 0.986,0 1.626,-0.713 1.626,-1.662 -0.019,-0.969 -0.658,-1.662 -1.626,-1.662 -0.968,0 -1.644,0.693 -1.644,1.662 0,0.949 0.657,1.662 1.644,1.662 z" id="path22" style="fill:#acaeb1;fill-opacity:1" />
				<rect style="fill:#acaeb1;fill-opacity:1;stroke-width:0.93697375" id="rect839" width="2.6233742" height="8.5975561" x="14.682761" y="8.4289846" />
			</g>
			<g id="notInformation" transform="matrix(1 0 0 -1 608 76)">
				<circle id="circle310" fill="#acaeb1" cx="16" cy="15.5" r="12"/>
				<circle id="circle310" fill="#FFF" cx="16" cy="15.5" r="10"/>
				<line fill="none" x1="7" y1="23" x2="23" y2="7" stroke="#acaeb1" stroke-width="2"/>
				<path d="m 16,22.256 c 0.986,0 1.626,-0.713 1.626,-1.662 -0.019,-0.969 -0.658,-1.662 -1.626,-1.662 -0.968,0 -1.644,0.693 -1.644,1.662 0,0.949 0.657,1.662 1.644,1.662 z" id="path22" style="fill:#acaeb1;fill-opacity:1" />
				<rect style="fill:#acaeb1;fill-opacity:1;stroke-width:0.93697375" id="rect839" width="2.6233742" height="8.5975561" x="14.682761" y="8.4289846" />
			</g>

			<circle id="circle300" fill="#496376" cx="110.8" cy="95.5" r="1.3"/>
			<path id="path302" fill="#496376" stroke="#496376" stroke-width="0.2" d="M103.194,108.6l1.294-3.263l2.515-0.104l-1.378,3.411
				c-0.724,0.106-2,0.041-2.431,0V108.6z"/>
			<path id="path304" fill="#496376" stroke="#496376" stroke-width="0.2" d="M107.299,102.857l0.045-3.236l2.522-2.299h1.606
				l3.55,5.2l-0.447,0.4l-2.834-3.594l-0.067,3.259l1.696,3.393l-0.134,3.504l-0.692,0.045l-0.066-3.326l-1.652-2.969l-1.138,3.214
				l-1.429,2.835l-0.826-0.29l1.429-2.924l0.96-3.46l-0.179-3.683l-1.563,1.116l-0.29,2.79L107.299,102.857z"/>
			<path id="path306" fill="none" stroke="#496376" stroke-width="0.4" d="M106.16,105.268c0,0,0.847-2.676,1.429-2.321
				c0.466,0.283-0.759,2.322-0.759,2.322"/>
			<circle id="circle308" fill="#496376" cx="105" cy="109.5" r="0.5"/>

			<!-- человек с чемоданом (класс icon-mann-white) -->
			<g id="g331" transform="translate(147,-20) scale(1.2)">
				<circle id="circle333" fill="#496376" cx="50.8" cy="95.5" r="1.3"/>
				<path id="path335" fill="#496376" stroke="#496376" stroke-width="0.2" d="M43.194,108.6l1.294-3.263l2.515-0.104l-1.378,3.411
					C44.901,108.751,43.624,108.685,43.194,108.6L43.194,108.6z"/>
				<path id="path337" fill="#496376" stroke="#496376" stroke-width="0.2" d="M47.299,102.857l0.045-3.236l2.522-2.299h1.606
					l3.55,5.2l-0.447,0.402l-2.834-3.594l-0.067,3.259l1.696,3.393l-0.134,3.504l-0.692,0.044l-0.066-3.326l-1.652-2.969
					l-1.138,3.214l-1.429,2.835l-0.826-0.291l1.429-2.924l0.96-3.46l-0.179-3.683l-1.563,1.116l-0.29,2.79L47.299,102.857z"/>
				<path id="path339" fill="none" stroke="#496376" stroke-width="0.4" d="M46.16,105.268c0,0,0.847-2.676,1.429-2.321
					c0.466,0.283-0.759,2.322-0.759,2.322"/>
				<circle id="circle341" fill="#496376" cx="45" cy="109.5" r="0.5"/>
			</g>
			<g id="g362" transform="translate(211,0)">
				<circle id="circle364" fill="#496376" cx="50.8" cy="95.5" r="1.3"/>
				<path id="path366" fill="#496376" stroke="#496376" stroke-width="0.2" d="M43.194,108.6l1.294-3.263l2.515-0.104l-1.378,3.411
					C44.901,108.751,43.624,108.685,43.194,108.6L43.194,108.6z"/>
				<path id="path368" fill="#496376" stroke="#496376" stroke-width="0.2" d="M47.299,102.857l0.045-3.236l2.522-2.299h1.606
					l3.55,5.2l-0.447,0.402l-2.834-3.594l-0.067,3.259l1.696,3.393l-0.134,3.504l-0.692,0.044l-0.066-3.326l-1.652-2.969
					l-1.138,3.214l-1.429,2.835l-0.826-0.291l1.429-2.924l0.96-3.46l-0.179-3.683l-1.563,1.116l-0.29,2.79L47.299,102.857z"/>
				<path id="path370" fill="none" stroke="#496376" stroke-width="0.4" d="M46.16,105.268c0,0,0.847-2.676,1.429-2.321
					c0.466,0.283-0.759,2.322-0.759,2.322"/>
				<circle id="circle372" fill="#496376" cx="45" cy="109.5" r="0.5"/>
			</g>
			<g id="ferryBlue" transform="translate(-101,41)">
				<path id="path5677" fill="#496376" d="M417.947,55.382l4.792-0.083c0,0-0.004-0.412,0-0.699c0.765-0.288,2.613-0.283,3.371,0
					c0.028,0.365,0,0.74,0,0.74h4.564v1.974h2.015v1.48h-1.11c0,0-0.026,3.847-0.228,5.921c-0.622,1.435-4.601,1.636-6.927,1.645
					c-2.5-0.049-6.45-0.171-7.278-1.727c-0.086-1.73-0.205-5.715-0.205-5.715l-1.052-0.036l-0.059-1.609h2.015L417.947,55.382z"/>
				<path id="path5679" fill="#496376" d="M417.878,57.373l-0.073-6.062l1.963-0.043l0.072-2.108h8.767l0.116,1.948l2.035,0.029
					l-0.058,6.164l-1.73-1.978l0.015-2.5l-9.362-0.015v2.544L417.878,57.373z"/>
				<path id="ferryWaveBlue" fill="none" stroke="#496376" stroke-width="1.5" d="M413.884,67.031c0,0,1.411-1.265,2.276-1.25
					c1.385,0.023,2.188,2.137,3.571,2.121c1.458-0.018,2.249-2.372,3.706-2.321c1.352,0.05,1.929,2.356,3.281,2.388
					c1.46,0.034,2.199-2.446,3.66-2.411c1.336,0.033,1.9,2.333,3.236,2.366c0.784,0.02,1.965-1.295,1.965-1.295"/>
				<g id="use401" transform="translate(0,3)">
					<path id="ferryWaveBlue_1_" fill="none" stroke="#496376" stroke-width="1.5" d="M413.884,70.031c0,0,1.411-1.265,2.276-1.25
						c1.385,0.023,2.188,2.137,3.571,2.121c1.458-0.018,2.249-2.372,3.706-2.321c1.352,0.05,1.929,2.356,3.281,2.388
						c1.46,0.034,2.199-2.446,3.66-2.411c1.336,0.033,1.9,2.333,3.236,2.366c0.784,0.02,1.965-1.295,1.965-1.295"/>
				</g>
			</g>
			<circle id="circle468" fill="#FFFFFF" cx="110.8" cy="135.5" r="1.3"/>
			<path id="path470" fill="#FFFFFF" stroke="#FFFFFF" stroke-width="0.2" d="M103.194,148.6l1.294-3.263l2.515-0.104l-1.378,3.411
				c-0.724,0.106-2,0.041-2.431,0V148.6z"/>
			<path id="path472" fill="#FFFFFF" stroke="#FFFFFF" stroke-width="0.2" d="M107.299,142.857l0.045-3.236l2.522-2.299h1.606
				l3.55,5.2l-0.447,0.4l-2.834-3.594l-0.067,3.259l1.696,3.393l-0.134,3.504l-0.692,0.045l-0.066-3.326l-1.652-2.969l-1.138,3.214
				l-1.429,2.835l-0.826-0.29l1.429-2.924l0.96-3.46l-0.179-3.683l-1.563,1.116l-0.29,2.79L107.299,142.857z"/>
			<path id="path474" fill="none" stroke="#FFFFFF" stroke-width="0.4" d="M106.16,145.268c0,0,0.847-2.676,1.429-2.321
				c0.466,0.283-0.759,2.322-0.759,2.322"/>
			<circle id="circle476" fill="#FFFFFF" cx="105" cy="149.5" r="0.5"/>
			<g id="g502" transform="translate(161,0)">
				<circle id="circle504" fill="#FFFFFF" cx="50.8" cy="135.5" r="1.3"/>
				<path id="path5743" fill="#FFFFFF" stroke="#FFFFFF" stroke-width="0.2" d="M43.194,148.6l1.294-3.263l2.515-0.104l-1.378,3.411
					C44.901,148.751,43.624,148.685,43.194,148.6L43.194,148.6z"/>
				<path id="path5745" fill="#FFFFFF" stroke="#FFFFFF" stroke-width="0.2" d="M47.299,142.857l0.045-3.236l2.522-2.299h1.606
					l3.55,5.2l-0.447,0.402l-2.834-3.594l-0.067,3.259l1.696,3.393l-0.134,3.504l-0.692,0.044l-0.066-3.326l-1.652-2.969
					l-1.138,3.214l-1.429,2.835l-0.826-0.291l1.429-2.924l0.96-3.46l-0.179-3.683l-1.563,1.116l-0.29,2.79L47.299,142.857z"/>
				<path id="path5747" fill="none" stroke="#FFFFFF" stroke-width="0.4" d="M46.16,145.268c0,0,0.847-2.676,1.429-2.321
					c0.466,0.283-0.759,2.322-0.759,2.322"/>
				<circle id="circle512" fill="#FFFFFF" cx="45" cy="149.5" r="0.5"/>
			</g>
			<g id="g534" transform="translate(211,0)">
				<circle id="circle536" fill="#FFFFFF" cx="50.8" cy="135.5" r="1.3"/>
				<path id="path538" fill="#FFFFFF" stroke="#FFFFFF" stroke-width="0.2" d="M43.194,148.6l1.294-3.263l2.515-0.104l-1.378,3.411
					C44.901,148.751,43.624,148.685,43.194,148.6L43.194,148.6z"/>
				<path id="path540" fill="#FFFFFF" stroke="#FFFFFF" stroke-width="0.2" d="M47.299,142.857l0.045-3.236l2.522-2.299h1.606
					l3.55,5.2l-0.447,0.402l-2.834-3.594l-0.067,3.259l1.696,3.393l-0.134,3.504l-0.692,0.044l-0.066-3.326l-1.652-2.969
					l-1.138,3.214l-1.429,2.835l-0.826-0.291l1.429-2.924l0.96-3.46l-0.179-3.683l-1.563,1.116l-0.29,2.79L47.299,142.857z"/>
				<path id="path542" fill="none" stroke="#FFFFFF" stroke-width="0.4" d="M46.16,145.268c0,0,0.847-2.676,1.429-2.321
					c0.466,0.283-0.759,2.322-0.759,2.322"/>
				<circle id="circle544" fill="#FFFFFF" cx="45" cy="149.5" r="0.5"/>
			</g>
			<g id="g568" transform="translate(-101,41)">
				<path id="path5785" fill="#FFFFFF" d="M417.947,95.382l4.792-0.083c0,0-0.004-0.412,0-0.699c0.765-0.288,2.613-0.283,3.371,0
					c0.028,0.365,0,0.74,0,0.74h4.564v1.974h2.015v1.48h-1.11c0,0-0.026,3.847-0.228,5.921c-0.622,1.435-4.601,1.636-6.927,1.645
					c-2.5-0.049-6.45-0.171-7.278-1.727c-0.086-1.73-0.205-5.715-0.205-5.715l-1.052-0.036l-0.059-1.609h2.015L417.947,95.382z"/>
				<path id="path5787" fill="#FFFFFF" d="M417.878,97.373l-0.073-6.062l1.963-0.043l0.072-2.108h8.767l0.116,1.948l2.035,0.029
					l-0.058,6.164l-1.73-1.978l0.015-2.5l-9.362-0.015v2.544L417.878,97.373z"/>
				<path id="whiteWave" fill="none" stroke="#FFFFFF" stroke-width="1.5" d="M413.884,107.031c0,0,1.411-1.265,2.276-1.25
					c1.385,0.023,2.188,2.137,3.571,2.121c1.458-0.018,2.249-2.372,3.706-2.321c1.352,0.05,1.929,2.356,3.281,2.388
					c1.46,0.034,2.199-2.446,3.66-2.411c1.336,0.033,1.9,2.333,3.236,2.366c0.784,0.02,1.965-1.295,1.965-1.295"/>
				<g id="use576" transform="translate(0,3)">
					<path id="whiteWave_1_" fill="none" stroke="#FFFFFF" stroke-width="1.5" d="M413.884,110.031c0,0,1.411-1.265,2.276-1.25
						c1.385,0.023,2.188,2.137,3.571,2.121c1.458-0.018,2.249-2.373,3.706-2.322c1.352,0.05,1.929,2.357,3.281,2.388
						c1.46,0.034,2.199-2.446,3.66-2.411c1.336,0.033,1.9,2.333,3.236,2.366c0.784,0.021,1.965-1.295,1.965-1.295"/>
				</g>
			</g>
			<g id="buttons">
				<g id="g579">
					<circle id="circle581" fill="#666666" cx="26" cy="183" r="8"/>
					<path id="path583" fill="#FFFFFF" stroke="#FFFFFF" stroke-width="0.5" d="M25,178.4L29.4,182.8L25,187.2V178.4z"/>
				</g>
				<g id="g585">
					<circle id="circle587" fill="#FFFFFF" cx="74" cy="183" r="8"/>
					<path id="path589" fill="#666666" stroke="#666666" stroke-width="0.5" d="M73.2,178.4L77.6,182.8l-4.399,4.4V178.4z"/>
				</g>
				<g id="g591">
					<circle id="circle593" fill="#666666" cx="128" cy="183" r="8"/>
					<path id="path595" fill="#FFFFFF" stroke="#FFFFFF" stroke-width="0.5" d="M128.5,178.4l-4.4,4.399l4.4,4.4V178.4z"/>
				</g>
				<g id="g597">
					<circle id="circle599" fill="#FFFFFF" cx="173.5" cy="183" r="8"/>
					<path id="path601" fill="#666666" stroke="#666666" stroke-width="0.5" d="M174.5,178.4l-4.4,4.399l4.4,4.4V178.4z"/>
				</g>
			</g>
			<g id="leaf">
				<path fill="#74C35D" fill-opacity="0.9961" stroke="#73C35C" stroke-width="0.5" stroke-opacity="0.9961" d="M26.666,227.211
					c0,0-4.55,0-6.194-1.415c-1.227-1.062-2.122-3.333-2.323-4.943c-0.137-1.096,0.494-2.651-0.416-4.091
					c-0.911-1.439-1.759-1.735-3.108-2.127c1.166-0.783,2.438-1.199,4.018-1.548c1.788-0.381,4.049-0.354,5.53,0.493
					c2.152,1.229,3.737,2.891,4.83,4.734c0.871,1.472,1.172,3.23,0.896,4.918c-0.114,0.699-0.684,1.57-1.27,2.244
					c-1.177-2.338-5.271-8.429-9.171-10.016c4.148,4.538,7.001,8.425,7.94,11.346c0.54,2.412,1.054,4.312,1.054,4.312l-1.363,0.266
					L26.666,227.211z"/>
			</g>
			<g id="car_1">
				<path id="path609" fill="#EC4E2B" stroke="#EC4E2B" stroke-width="0.2" d="M63.166,225.217c-0.368,0-0.287-0.332-0.348-0.536
					c0-1.349,0.012-2.689,0-4.356c0.139-1.367,1.129-3.629,2.273-4.198c3.579,0.033,8.421,0.039,11.27,0.031
					c0.995,0.507,2.729,2.231,3.693,3.63c2.351,0.347,4.834,0.375,6.657,1.957c0,1.307,0,3.477,0,3.477h-0.959
					c0,0-0.474-1.169-1.35-1.926c-0.924-0.799-2.587-0.893-3.688,0.023c-0.607,0.506-1.189,1.887-1.189,1.887h-9.475
					c0,0-0.684-1.547-1.575-2s-2.27-0.498-3.279,0.057c-1,0.553-1.345,1.941-1.345,1.941s-0.332,0-0.694,0L63.166,225.217z"/>
				<path id="path611" fill="#FFFFFF" stroke="#FFFFFF" stroke-width="0.2" d="M71.875,217.3c0,0,3.013,0,4.308-0.022
					c0.649,0.25,1.443,0.801,1.986,1.63c0,0.56-0.021,1.317-0.021,1.317h-6.272V217.3z"/>
				<rect id="rect613" x="65.5" y="217.3" fill="#FFFFFF" width="5" height="3"/>
				<circle id="circle615" fill="#EC4E2B" cx="66.7" cy="226" r="1.8"/>
				<circle id="circle617" fill="#EC4E2B" cx="82.7" cy="226" r="1.8"/>
			</g>
			<g id="airplane">
				<path id="path620" fill="#89B0D2" stroke="#89B0D2" stroke-width="0.3" d="M114.115,220.324
					c-0.679-1.51-0.854-1.627-2.083-3.441c-0.513-0.568,0.459-0.936,1.199-0.567c1.397,1.722,3.157,4.071,3.157,4.071l5.902-0.063
					c0,0-3.29-6.133-5.366-8.965c-0.303-0.884-0.113-1.146,0.758-1.073c3.291,2.948,10.038,9.849,10.038,9.849s3.838,0,6.219-0.031
					c0.956,0.314,1.594,0.85,1.895,1.578c-0.426,0.761-0.995,1.277-1.862,1.452c-2.432-0.038-6.313-0.031-6.313-0.031
					s-6.33,6.075-10.102,9.786c-0.771-0.035-0.658-0.1-0.537-1.168c1.608-2.369,5.304-8.808,5.304-8.808h-5.84
					c0,0-2.4,2.846-3.536,4.136c-0.721,0.176-1.396,0.043-0.82-0.664c0.995-1.52,1.171-2.203,1.988-3.504
					C114.115,221.911,114.105,221.266,114.115,220.324L114.115,220.324z"/>
			</g>
			<g id="train_1">
				<path id="path623" fill="#B1B06D" stroke="#B1B06D" stroke-width="0.2" d="M163.862,223.861l-0.022-9.531h9.554v2.5H172.5v1.563
					h7.41v-4.107h1.519v4.019h1.964v4.776h1.339v1.116h0.894l-0.022,2.054h1.272v0.759h0.803v1.831h-5.58l-0.044-4.063h-0.849
					l0.022-0.871L163.862,223.861z"/>
				<rect id="rect625" x="165.5" y="217" fill="#FFFFFF" width="4.5" height="2.5"/>
				<g id="trainWheel">
					<line id="line632" fill="none" x1="164.4" y1="226.2" x2="166.5" y2="227.8" stroke="#999" stroke-width="0.5"/>
					<line id="line634" fill="none" x1="166.5" y1="226.2" x2="164.4" y2="227.8" stroke="#999" stroke-width="0.5"/>
					<line id="line636" fill="none" x1="165.5" y1="225" x2="165.5" y2="229" stroke="#999" stroke-width="0.5"/>
					<line id="line638" fill="none" x1="168.7" y1="226.2" x2="171.5" y2="227.8" stroke="#999" stroke-width="0.5"/>
					<line id="line640" fill="none" x1="171" y1="226.2" x2="169" y2="227.8" stroke="#999" stroke-width="0.5"/>
					<line id="line642" fill="none" x1="170" y1="225" x2="170" y2="229" stroke="#999" stroke-width="0.5"/>
					<circle id="circle628" cx="165.5" cy="227" r="1.6" fill="none" stroke="#555" stroke-width="0.8"/>
					<circle id="circle630" cx="170" cy="227" r="1.6" fill="none" stroke="#555" stroke-width="0.8"/>
					<rect id="rect644" x="165.5" y="226.7" fill="none" stroke="#B1B06D" stroke-width="0.5" width="4.5" height="0.6"/>
				</g>
				<g id="use646" transform="translate(0,0)">
					<g id="trainWheel_1_">
						<line id="line632_1_" fill="none" x1="173.4" y1="226.2" x2="175.5" y2="227.8" stroke="#999" stroke-width="0.5"/>
						<line id="line634_1_" fill="none" x1="175.5" y1="226.2" x2="173.4" y2="227.8" stroke="#999" stroke-width="0.5"/>
						<line id="line636_1_" fill="none" x1="174.5" y1="225" x2="174.5" y2="229" stroke="#999" stroke-width="0.5"/>
						<line id="line638_1_" fill="none" x1="177.7" y1="226.2" x2="180.5" y2="227.8" stroke="#999" stroke-width="0.5"/>
						<line id="line640_1_" fill="none" x1="180" y1="226.2" x2="178" y2="227.8" stroke="#999" stroke-width="0.5"/>
						<line id="line642_1_" fill="none" x1="179" y1="225" x2="179" y2="229" stroke="#999" stroke-width="0.5"/>
  						<circle id="circle628_1_" cx="174.5" cy="227" r="1.6" fill="none" stroke="#555" stroke-width="0.8"/>
						<circle id="circle630_1_" cx="179" cy="227" r="1.6" fill="none" stroke="#555" stroke-width="0.8"/>
						<rect id="rect644" x="174.5" y="226.7" fill="none" stroke="#B1B06D" stroke-width="0.5" width="4.5" height="0.6"/>
					</g>
				</g>
			</g>
			<g id="train_1_">
				<path id="path5588_1_" fill="#496376" stroke="#496376" stroke-width="0.3" d="M365.027,92.807c0,0,5.146,0.064,8.555,0
					c8.253,0.955,15.634,6.742,16.636,12.5h-25.064l-0.063-4.482c0,0,3.915-0.104,5.872-0.063c4.802,0.1,10.007-0.067,14.39,0.753
					c-2.499-5.82-9.895-5.937-14.453-5.993c-1.936-0.024-5.809,0-5.809,0L365.027,92.807z"/>
				<rect id="rect4791_1_" x="370.878" y="95.363" fill="#496376" width="1.919" height="5.524"/>
				<path id="path248_1_" fill="#496376" stroke="#496376" stroke-width="0.2" d="M365.311,106.854h2.367l0.789,0.884l-0.031,0.631
					l-3.125,0.032V106.854z"/>
				<path id="wheel_4_" fill="#496376" stroke="#496376" stroke-width="0.3" d="M370.393,106.98c1.16,0,1.931-0.018,3.094,0
					c0.181,1.191-0.52,2.241-1.547,2.272S370.221,108.167,370.393,106.98z"/>
				<circle id="circle251_1_" fill="#496376" cx="376.468" cy="107.693" r="0.8"/>
				<g id="use253_1_" transform="translate(9,0)">
					<path id="wheel_3_" fill="#496376" stroke="#496376" stroke-width="0.3" d="M379.393,106.98c1.16,0,1.931-0.018,3.094,0
						c0.181,1.191-0.52,2.241-1.547,2.272S379.221,108.167,379.393,106.98z"/>
				</g>
				<path id="path255_1_" fill="#496376" stroke="#496376" stroke-width="0.3" d="M384.472,106.917l5.114-0.031l-2.021,1.515h-3.094
					V106.917z"/>
				<line id="line257_1_" fill="none" stroke="#496376" x1="364.968" y1="111.193" x2="386.968" y2="111.193"/>
			</g>
			<g>
				<g>
					<path fill="#496376" d="M82.119,90.174L82.119,90.174l-13.118,0c-0.003,0-0.005,0-0.007,0c-1.24,0-2.244,1.004-2.244,2.243
						v3.375v0.928v12.363h17.594V92.417C84.344,91.184,83.35,90.185,82.119,90.174z M68.171,93.581c0-1.039,0.841-1.881,1.881-1.881
						c0.002,0,0.004,0,0.005,0v0h11.001v0c1.032,0.009,1.866,0.847,1.866,1.881v2.21H68.171V93.581z M82.923,107.556H68.171v-3.629
						h14.752V107.556z M68.171,102.999v-6.279h14.752v6.279H68.171z"/>
					<rect x="72.574" y="93.318" fill="#496376" width="5.945" height="0.791"/>
					<g>
						<circle fill="#496376" cx="71.024" cy="105.786" r="0.927"/>
						<circle fill="#496376" cx="80.07" cy="105.882" r="0.927"/>
					</g>
					<g>
						<path fill="#496376" d="M69.666,107.609c-0.642,0-1.163,0.52-1.163,1.163v1.582c0,0.642,0.521,1.163,1.163,1.163
							s1.163-0.521,1.163-1.163v-1.582C70.828,108.129,70.308,107.609,69.666,107.609z"/>
						<path fill="#496376" d="M81.428,107.609c-0.642,0-1.163,0.52-1.163,1.163v1.582c0,0.642,0.521,1.163,1.163,1.163
							s1.163-0.521,1.163-1.163v-1.582C82.591,108.129,82.07,107.609,81.428,107.609z"/>
					</g>
				</g>
				<g>
					<rect x="66.398" y="94.928" fill="#496376" width="0.703" height="5.625"/>
					<rect x="83.992" y="94.769" fill="#496376" width="0.703" height="5.625"/>
				</g>
			</g>
			<g>
				<g>
					<path fill="#496376" d="M142.221,90.522L142.221,90.522l-13.118,0c-0.003,0-0.005,0-0.007,0c-1.24,0-2.244,1.004-2.244,2.243
						v3.375v0.928v12.363h17.594V92.765C144.446,91.533,143.452,90.533,142.221,90.522z M128.273,93.93
						c0-1.039,0.841-1.881,1.881-1.881c0.002,0,0.004,0,0.005,0v0h11.001v0c1.032,0.009,1.866,0.847,1.866,1.881v2.21h-14.752V93.93
						z M143.026,107.905h-14.752v-3.629h14.752V107.905z M128.273,103.347v-6.279h14.752v6.279H128.273z"/>
					<rect x="132.677" y="93.667" fill="#496376" width="5.945" height="0.791"/>
					<g>
						<circle fill="#496376" cx="131.127" cy="106.135" r="0.927"/>
						<circle fill="#496376" cx="140.172" cy="106.231" r="0.927"/>
					</g>
					<g>
						<path fill="#496376" d="M129.768,107.958c-0.642,0-1.163,0.52-1.163,1.163v1.582c0,0.642,0.521,1.163,1.163,1.163
							s1.163-0.521,1.163-1.163v-1.582C130.931,108.478,130.41,107.958,129.768,107.958z"/>
						<path fill="#496376" d="M141.531,107.958c-0.642,0-1.163,0.52-1.163,1.163v1.582c0,0.642,0.521,1.163,1.163,1.163
							s1.163-0.521,1.163-1.163v-1.582C142.693,108.478,142.173,107.958,141.531,107.958z"/>
					</g>
				</g>
				<g>
					<rect x="126.5" y="95.277" fill="#496376" width="0.703" height="5.625"/>
					<rect x="144.094" y="95.117" fill="#496376" width="0.703" height="5.625"/>
				</g>
			</g>
			<g>
				<g>
					<path fill="#FFFFFF" d="M82.119,130.399L82.119,130.399l-13.118,0c-0.003,0-0.005,0-0.007,0c-1.24,0-2.244,1.004-2.244,2.243
						v3.375v0.928v12.364h17.594v-16.667C84.344,131.409,83.35,130.41,82.119,130.399z M68.171,133.806
						c0-1.039,0.841-1.881,1.881-1.881c0.002,0,0.004,0,0.005,0v0h11.001v0c1.032,0.009,1.866,0.847,1.866,1.881v2.21H68.171
						V133.806z M82.924,147.781H68.171v-3.629h14.752V147.781z M68.171,143.224v-6.28h14.752v6.28H68.171z"/>
					<rect x="72.575" y="133.543" fill="#FFFFFF" width="5.945" height="0.791"/>
					<g>
						<circle fill="#FFFFFF" cx="71.025" cy="146.012" r="0.927"/>
						<circle fill="#FFFFFF" cx="80.07" cy="146.108" r="0.927"/>
					</g>
					<g>
						<path fill="#FFFFFF" d="M69.666,147.834c-0.642,0-1.163,0.521-1.163,1.163v1.583c0,0.641,0.521,1.162,1.163,1.162
							s1.163-0.521,1.163-1.162v-1.583C70.829,148.355,70.308,147.834,69.666,147.834z"/>
						<path fill="#FFFFFF" d="M81.428,147.834c-0.642,0-1.163,0.521-1.163,1.163v1.583c0,0.641,0.521,1.162,1.163,1.162
							s1.163-0.521,1.163-1.162v-1.583C82.591,148.355,82.071,147.834,81.428,147.834z"/>
					</g>
				</g>
				<g>
					<rect x="66.398" y="135.153" fill="#FFFFFF" width="0.703" height="5.625"/>
					<rect x="83.992" y="134.994" fill="#FFFFFF" width="0.703" height="5.625"/>
				</g>
			</g>
			<g>
				<g>
					<path fill="#FFFFFF" d="M142.222,130.399L142.222,130.399l-13.118-0.001c-0.003,0-0.005,0-0.007,0
						c-1.24,0-2.244,1.005-2.244,2.243v3.375v0.928v12.363h17.594v-16.666C144.447,131.409,143.453,130.409,142.222,130.399z
						 M128.274,133.806c0-1.039,0.841-1.881,1.881-1.881c0.002,0,0.004,0,0.005,0l0,0h11.001l0,0
						c1.032,0.01,1.866,0.848,1.866,1.881v2.211h-14.752V133.806z M143.027,147.78h-14.752v-3.629h14.752V147.78z M128.274,143.224
						v-6.279h14.752v6.279H128.274z"/>
					<rect x="132.678" y="133.544" fill="#FFFFFF" width="5.945" height="0.791"/>
					<g>
						<circle fill="#FFFFFF" cx="131.128" cy="146.012" r="0.927"/>
						<circle fill="#FFFFFF" cx="140.173" cy="146.107" r="0.927"/>
					</g>
					<g>
						<path fill="#FFFFFF" d="M129.769,147.835c-0.642,0-1.163,0.52-1.163,1.162v1.583c0,0.641,0.521,1.162,1.163,1.162
							s1.163-0.521,1.163-1.162v-1.583C130.932,148.354,130.411,147.835,129.769,147.835z"/>
						<path fill="#FFFFFF" d="M141.531,147.835c-0.642,0-1.163,0.52-1.163,1.162v1.583c0,0.641,0.521,1.162,1.163,1.162
							s1.163-0.521,1.163-1.162v-1.583C142.694,148.354,142.174,147.835,141.531,147.835z"/>
					</g>
				</g>
				<g>
					<rect x="126.501" y="135.153" fill="#FFFFFF" width="0.703" height="5.625"/>
					<rect x="144.095" y="134.993" fill="#FFFFFF" width="0.703" height="5.625"/>
				</g>
			</g>
			<g id="change_dir">
				<path fill="#FFFFFF" d="M218.998,182.85c-0.301,0-0.5-0.1-0.5-0.399c0-2.3,0-3.601,0-6c0-0.3,0.199-0.5,0.5-0.5c1.699,0,5,0,5,0
					v1.3l2.3-2l-2.34-2v1.15c0,0-3.9,0-5.8,0c-0.7,0-1.2,1-1.2,1.6c0,2.4,0,4.8,0,7c0,0.7,0.55,1.5,1.25,1.5c0.827,0,2.5,0,2.5,0
					l-0.011-1.65C220.697,182.85,219.697,182.85,218.998,182.85z"/>
				<path fill="#FFFFFF" d="M230.791,174.17c-0.827,0-2.5,0-2.5,0l0.011,1.65c0,0,1,0,1.699,0c0.301,0,0.5,0.1,0.5,0.399
					c0,2.3,0,3.601,0,6c0,0.3-0.199,0.5-0.5,0.5c-1.699,0-5,0-5,0v-1.3l-2.3,2l2.34,2v-1.15c0,0,3.9,0,5.8,0c0.7,0,1.2-1,1.2-1.6
					c0-2.4,0-4.8,0-7C232.041,174.97,231.491,174.17,230.791,174.17z"/>
			</g>
			<g id="change_dir_grey">
				<path fill="#A7A9AC" d="M268.998,182.85c-0.301,0-0.5-0.1-0.5-0.399c0-2.3,0-3.601,0-6c0-0.3,0.199-0.5,0.5-0.5c1.699,0,5,0,5,0
					v1.3l2.3-2l-2.34-2v1.15c0,0-3.9,0-5.8,0c-0.7,0-1.2,1-1.2,1.6c0,2.4,0,4.8,0,7c0,0.7,0.55,1.5,1.25,1.5c0.827,0,2.5,0,2.5,0
					l-0.011-1.65C270.697,182.85,269.697,182.85,268.998,182.85z"/>
				<path fill="#A7A9AC" d="M280.791,174.17c-0.827,0-2.5,0-2.5,0l0.011,1.65c0,0,1,0,1.699,0c0.301,0,0.5,0.1,0.5,0.399 c0,2.3,0,3.601,0,6c0,0.3-0.199,0.5-0.5,0.5c-1.699,0-5,0-5,0v-1.3l-2.3,2l2.34,2v-1.15c0,0,3.9,0,5.8,0c0.7,0,1.2-1,1.2-1.6 c0-2.4,0-4.8,0-7C282.041,174.97,281.491,174.17,280.791,174.17z"/>
			</g>
			<g id="change_dir_arrow">
				<rect x="317" y="177" fill="#CCCCCC" width="15" height="1.5"/>
				<path style="fill:#CCCCCC;stroke:#CCCCCC;stroke-width:1px;" d="m 330.27542,175.7 2,2 -2,2 z"/>
				<rect x="317" y="182" fill="#CCCCCC" width="15" height="1.5"/>
				<path d="m 318.5,181 -2,2 2,2 z" style="fill:#CCCCCC;stroke:#CCCCCC;stroke-width:1px;" />
			</g>
		</g>
		<g id="Layer_7">
			<g>
				<path id="path5686_1_" fill="#FFFFFF" stroke="#FFFFFF" stroke-width="0.3" d="M12.088,133.113c0,0,5.146,0.064,8.555,0
					c8.253,0.955,15.634,6.742,16.636,12.5H12.214l-0.063-4.482c0,0,3.915-0.104,5.872-0.063c4.802,0.1,10.007-0.067,14.39,0.753
					c-2.499-5.82-9.895-5.937-14.453-5.993c-1.936-0.024-5.809,0-5.809,0L12.088,133.113z"/>
				<rect id="rect6054_1_" x="17.94" y="135.669" fill="#FFFFFF" width="1.919" height="5.524"/>
				<path id="path5689_1_" fill="#FFFFFF" stroke="#FFFFFF" stroke-width="0.2" d="M12.372,147.16h2.367l0.789,0.885l-0.031,0.631
					l-3.125,0.031V147.16z"/>
				<path id="wheelWhite_4_" fill="#FFFFFF" stroke="#FFFFFF" stroke-width="0.3" d="M17.454,147.287c1.16,0,1.931-0.018,3.094,0
					c0.181,1.191-0.52,2.241-1.547,2.272S17.282,148.474,17.454,147.287z"/>
				<circle id="circle5692_1_" fill="#FFFFFF" cx="23.53" cy="148" r="0.8"/>
				<path id="wheelWhite_3_" fill="#FFFFFF" stroke="#FFFFFF" stroke-width="0.3" d="M26.454,147.287c1.16,0,1.931-0.018,3.094,0
					c0.181,1.191-0.52,2.241-1.547,2.272S26.282,148.474,26.454,147.287z"/>
				<path id="path5695_1_" fill="#FFFFFF" stroke="#FFFFFF" stroke-width="0.3" d="M31.533,147.224l5.114-0.031l-2.021,1.515h-3.094
					V147.224z"/>
				<line id="line422_1_" fill="none" stroke="#FFFFFF" x1="12.03" y1="151.5" x2="34.03" y2="151.5"/>
			</g>
			<g>
				<path id="path5686_2_" fill="#496376" stroke="#496376" stroke-width="0.3" d="M12.117,93.113c0,0,5.146,0.064,8.555,0
					c8.253,0.955,15.634,6.742,16.636,12.5H12.243l-0.063-4.482c0,0,3.915-0.104,5.872-0.063c4.802,0.1,10.007-0.067,14.39,0.753
					c-2.499-5.82-9.895-5.937-14.453-5.993c-1.936-0.024-5.809,0-5.809,0L12.117,93.113z"/>

					<rect id="rect6054_2_" x="17.969" y="95.669" fill="#496376" stroke="#496376" stroke-miterlimit="10" width="1.919" height="5.524"/>
				<path id="path5689_2_" fill="#496376" stroke="#496376" stroke-width="0.2" d="M12.402,107.16h2.367l0.789,0.885l-0.031,0.631
					l-3.125,0.031V107.16z"/>
				<path id="wheelWhite_5_" fill="#496376" stroke="#496376" stroke-width="0.3" d="M17.484,107.287c1.16,0,1.931-0.018,3.094,0
					c0.181,1.191-0.52,2.241-1.547,2.272S17.312,108.474,17.484,107.287z"/>
				<circle id="circle5692_2_" fill="#496376" stroke="#496376" stroke-miterlimit="10" cx="23.559" cy="108" r="0.8"/>
				<path id="wheelWhite_1_" fill="#496376" stroke="#496376" stroke-width="0.3" d="M26.484,107.287c1.16,0,1.931-0.018,3.094,0
					c0.181,1.191-0.52,2.241-1.547,2.272S26.312,108.474,26.484,107.287z"/>
				<path id="path5695_2_" fill="#496376" stroke="#496376" stroke-width="0.3" d="M31.563,107.224l5.114-0.031l-2.021,1.515h-3.094
					V107.224z"/>
				<line id="line422_2_" fill="#496376" stroke="#496376" x1="12.059" y1="111.5" x2="34.059" y2="111.5"/>
			</g>
			<g>
				<path id="path5686_4_" fill="#FFFFFF" stroke="#FFFFFF" stroke-width="0.3" d="M221.059,133.113c0,0,5.146,0.064,8.555,0
					c8.253,0.955,15.634,6.742,16.636,12.5h-25.064l-0.063-4.482c0,0,3.915-0.104,5.872-0.063c4.802,0.1,10.007-0.067,14.39,0.753
					c-2.499-5.82-9.895-5.937-14.453-5.993c-1.936-0.024-5.809,0-5.809,0L221.059,133.113z"/>
				<rect id="rect6054_4_" x="226.91" y="135.669" fill="#FFFFFF" width="1.919" height="5.524"/>
				<path id="path5689_4_" fill="#FFFFFF" stroke="#FFFFFF" stroke-width="0.2" d="M221.343,147.16h2.367l0.789,0.885l-0.031,0.631
					l-3.125,0.031V147.16z"/>
				<path id="wheelWhite_9_" fill="#FFFFFF" stroke="#FFFFFF" stroke-width="0.3" d="M226.425,147.287c1.16,0,1.931-0.018,3.094,0
					c0.181,1.191-0.52,2.241-1.547,2.272S226.253,148.474,226.425,147.287z"/>
				<circle id="circle5692_4_" fill="#FFFFFF" cx="232.5" cy="148" r="0.8"/>
				<path id="wheelWhite_8_" fill="#FFFFFF" stroke="#FFFFFF" stroke-width="0.3" d="M235.425,147.287c1.16,0,1.931-0.018,3.094,0
					c0.181,1.191-0.52,2.241-1.547,2.272S235.253,148.474,235.425,147.287z"/>
				<path id="path5695_4_" fill="#FFFFFF" stroke="#FFFFFF" stroke-width="0.3" d="M240.504,147.224l5.114-0.031l-2.021,1.515
					h-3.094V147.224z"/>
				<line id="line422_4_" fill="none" stroke="#FFFFFF" x1="221" y1="151.5" x2="243" y2="151.5"/>
			</g>
			<g>
				<path id="path5686_3_" fill="#496376" stroke="#496376" stroke-width="0.3" d="M221.088,93.113c0,0,5.146,0.064,8.555,0
					c8.253,0.955,15.634,6.742,16.636,12.5h-25.064l-0.063-4.482c0,0,3.915-0.104,5.872-0.063c4.802,0.1,10.007-0.067,14.39,0.753
					c-2.499-5.82-9.895-5.937-14.453-5.993c-1.936-0.024-5.809,0-5.809,0L221.088,93.113z"/>

					<rect id="rect6054_3_" x="226.94" y="95.669" fill="#496376" stroke="#496376" stroke-miterlimit="10" width="1.919" height="5.524"/>
				<path id="path5689_3_" fill="#496376" stroke="#496376" stroke-width="0.2" d="M221.372,107.16h2.367l0.789,0.885l-0.031,0.631
					l-3.125,0.031V107.16z"/>
				<path id="wheelWhite_7_" fill="#496376" stroke="#496376" stroke-width="0.3" d="M226.454,107.287c1.16,0,1.931-0.018,3.094,0
					c0.181,1.191-0.52,2.241-1.547,2.272S226.282,108.474,226.454,107.287z"/>
				<circle id="circle5692_3_" fill="#496376" stroke="#496376" stroke-miterlimit="10" cx="232.53" cy="108" r="0.8"/>
				<path id="wheelWhite_6_" fill="#496376" stroke="#496376" stroke-width="0.3" d="M235.454,107.287c1.16,0,1.931-0.018,3.094,0
					c0.181,1.191-0.52,2.241-1.547,2.272S235.282,108.474,235.454,107.287z"/>
				<path id="path5695_3_" fill="#496376" stroke="#496376" stroke-width="0.3" d="M240.533,107.224l5.114-0.031l-2.021,1.515
					h-3.094V107.224z"/>
				<line id="line422_3_" fill="#496376" stroke="#496376" x1="221.03" y1="111.5" x2="243.03" y2="111.5"/>
			</g>
		</g>
		<g id="Layer_3">
			<g id="electric_1_">
				<path id="path5625_1_" fill="#496376" d="M418.01,107.684c-0.066-1.441,0-4.478,0-4.478l3.838-0.029l2.588,2.151l2.646-2.123
					h3.635c0,0-0.012,2.98,0,4.449c-0.076,0.637-0.418,1.098-1.076,1.163c-3.439-0.02-6.9,0.015-10.584-0.058
					C418.364,108.709,418.082,108.351,418.01,107.684z"/>
				<path id="path5627_1_" fill="#496376" d="M418.01,100.997l12.736,0.029v1.687h-3.867l-2.385,1.948l-2.441-1.948h-4.072
					L418.01,100.997z"/>
				<path id="path5629_1_" fill="#496376" d="M418.01,101.055c0,0,0.012-4.107,0-6.396c-0.004-0.788,0.408-1.514,1.135-1.513
					c3.342,0.008,7.434,0.012,10.467,0.058c0.619,0.009,1.182,0.806,1.191,1.425c0.035,2.198-0.029,6.484-0.029,6.484l-0.871,0.029
					c0,0,0.004-2.966-0.029-4.536c-0.09-0.627-0.586-0.876-0.959-0.872c-0.908-0.038-2.734,0-2.734,0l-1.627,1.425l-1.717-1.454
					c0,0-1.764-0.033-2.877-0.029c-0.627,0.003-1.16,0.285-1.164,1.279c0.002,1.549,0.029,4.114,0.029,4.114L418.01,101.055z"/>
				<circle id="circle315_1_" fill="#FFFFFF" cx="424.457" cy="94.949" r="1.3"/>
				<path id="lightEl_3_" fill="#FFFFFF" d="M419.033,105.454c1.199-0.158,1.26-0.174,1.496-1.567
					c0.146,1.408,0.098,1.381,1.361,1.567c-1.238,0.13-1.207,0.156-1.424,1.541C420.215,105.656,420.24,105.62,419.033,105.454
					L419.033,105.454z"/>
				<path id="lightEl_2_" fill="#FFFFFF" d="M427.033,105.454c1.199-0.158,1.26-0.174,1.496-1.567
					c0.146,1.408,0.098,1.381,1.361,1.567c-1.238,0.13-1.207,0.156-1.424,1.541C428.215,105.656,428.24,105.62,427.033,105.454
					L427.033,105.454z"/>
				<line id="polyline322_1_" fill="none" stroke="#496376" x1="418.957" y1="109.949" x2="417.457" y2="111.449"/>
				<line id="polyline324_1_" fill="none" stroke="#496376" x1="429.957" y1="109.949" x2="431.457" y2="111.449"/>
				<polyline id="polyline326_1_" fill="none" stroke="#496376" stroke-width="0.5" points="418.957,90.949 420.457,89.249
					428.457,89.249 429.957,90.949 				"/>
				<polyline id="polyline328_1_" fill="none" stroke="#496376" stroke-width="0.5" points="421.957,89.249 421.957,90.449
					422.957,91.449 425.457,91.449 426.457,90.449 426.457,89.249 				"/>
			</g>
		</g>
		<g id="Layer_4" display="none">
			<path display="inline" fill="#231F20" stroke="#FFFFFF" stroke-width="0.5" stroke-miterlimit="10" d="M380.988,95.876
				c-3.37-3.37-8.833-3.37-12.203,0c-3.369,3.37-3.369,8.833,0,12.202c3.37,3.37,8.833,3.37,12.203,0
				C384.357,104.708,384.357,99.246,380.988,95.876z M370.234,97.324c2.317-2.318,5.936-2.544,8.509-0.679l-9.188,9.189
				C367.689,103.26,367.913,99.643,370.234,97.324z M371.03,107.31l9.189-9.189c1.865,2.573,1.64,6.191-0.68,8.51
				C377.221,108.949,373.603,109.175,371.03,107.31z"/>
		</g>
		<g id="Layer_5">
			<g>
				<polygon fill="#C70000" points="377.824,104.851 373.111,109.565 370.675,107.13 375.389,102.415 370.675,97.7 373.111,95.265
					377.824,99.979 382.538,95.265 384.974,97.7 380.26,102.415 384.974,107.13 382.538,109.565 				"/>
				<path fill="#FFFFFF" d="M382.538,95.972l1.729,1.729l-4.714,4.715l4.714,4.715l-1.729,1.729l-4.714-4.715l-4.714,4.715
					l-1.729-1.729l4.714-4.715l-4.714-4.715l1.729-1.729l4.714,4.714L382.538,95.972 M382.538,94.558l-0.707,0.707l-4.007,4.007
					l-4.007-4.007l-0.707-0.707l-0.707,0.707l-1.729,1.729l-0.707,0.707l0.707,0.707l4.007,4.008l-4.007,4.008l-0.707,0.707
					l0.707,0.707l1.729,1.729l0.707,0.707l0.707-0.707l4.007-4.007l4.007,4.007l0.707,0.707l0.707-0.707l1.729-1.729l0.707-0.707
					l-0.707-0.707l-4.007-4.008l4.007-4.008l0.707-0.707l-0.707-0.707l-1.729-1.729L382.538,94.558L382.538,94.558z"/>
			</g>
			<g>
				<polygon fill="#C70000" points="424.457,104.851 419.743,109.565 417.308,107.13 422.022,102.415 417.308,97.7 419.743,95.265
					424.457,99.979 429.171,95.265 431.607,97.7 426.893,102.415 431.607,107.13 429.171,109.565 				"/>
				<path fill="#FFFFFF" d="M429.171,95.972L430.9,97.7l-4.714,4.715l4.714,4.715l-1.729,1.729l-4.714-4.715l-4.714,4.715
					l-1.729-1.729l4.714-4.715l-4.714-4.715l1.729-1.729l4.714,4.714L429.171,95.972 M429.171,94.558l-0.707,0.707l-4.007,4.007
					l-4.007-4.007l-0.707-0.707l-0.707,0.707l-1.729,1.729l-0.707,0.707l0.707,0.707l4.007,4.008l-4.007,4.008l-0.707,0.707
					l0.707,0.707l1.729,1.729l0.707,0.707l0.707-0.707l4.007-4.007l4.007,4.007l0.707,0.707l0.707-0.707l1.729-1.729l0.707-0.707
					l-0.707-0.707l-4.007-4.008l4.007-4.008l0.707-0.707l-0.707-0.707l-1.729-1.729L429.171,94.558L429.171,94.558z"/>
			</g>
		</g>
		<g id="Layer_8">
			<g>
				<path id="path5625_2_" fill="#496376" d="M168.009,107.735c-0.067-1.44,0-4.478,0-4.478l3.838-0.029l2.588,2.152l2.646-2.123 h3.635c0,0-0.012,2.98,0,4.449c-0.076,0.637-0.417,1.098-1.076,1.162c-3.439-0.02-6.9,0.015-10.583-0.059 C168.363,108.761,168.081,108.402,168.009,107.735z"/>
				<path id="path5627_2_" fill="#496376" d="M168.009,101.048l12.735,0.029v1.687h-3.867l-2.384,1.948l-2.442-1.948h-4.071 L168.009,101.048z"/>
				<path id="path5629_2_" fill="#496376" d="M168.009,101.106c0,0,0.012-4.107,0-6.396c-0.004-0.788,0.407-1.514,1.134-1.513 c3.343,0.008,7.434,0.012,10.468,0.058c0.619,0.009,1.182,0.806,1.191,1.425c0.034,2.198-0.029,6.484-0.029,6.484l-0.872,0.029 c0,0,0.005-2.966-0.029-4.536c-0.089-0.627-0.585-0.876-0.959-0.872c-0.908-0.038-2.733,0-2.733,0l-1.628,1.425l-1.716-1.454 c0,0-1.765-0.033-2.878-0.029c-0.626,0.003-1.159,0.285-1.163,1.279c0.002,1.549,0.029,4.114,0.029,4.114L168.009,101.106z"/>
				<circle id="circle315_2_" fill="#FFFFFF" cx="174.455" cy="95" r="1.3"/>
				<line id="polyline322_2_" fill="none" stroke="#496376" x1="168.955" y1="110" x2="167.455" y2="111.5"/>
				<line id="polyline324_2_" fill="none" stroke="#496376" x1="179.955" y1="110" x2="181.455" y2="111.5"/>
				<polyline id="polyline326_2_" fill="none" stroke="#496376" stroke-width="0.5" points="168.955,91 170.455,89.3 178.455,89.3 179.955,91"/>
				<polyline id="polyline328_2_" fill="none" stroke="#496376" stroke-width="0.5" points="171.955,89.3 171.955,90.5 172.955,91.5 175.455,91.5 176.455,90.5 176.455,89.3"/>
				<circle fill="#FFFFFF" cx="170.166" cy="106.049" r="1.05"/>
				<circle fill="#FFFFFF" cx="178.746" cy="106.049" r="1.05"/>
			</g>
			<g>
				<path id="path5625_3_" fill="#496376" d="M277.087,107.684c-0.067-1.44,0-4.478,0-4.478l3.838-0.029l2.588,2.152l2.646-2.123 h3.635c0,0-0.012,2.98,0,4.449c-0.076,0.637-0.417,1.098-1.076,1.162c-3.439-0.02-6.9,0.015-10.583-0.059 C277.441,108.709,277.159,108.351,277.087,107.684z"/>
				<path id="path5627_3_" fill="#496376" d="M277.087,100.997l12.735,0.029v1.687h-3.867l-2.384,1.948l-2.442-1.948h-4.071 L277.087,100.997z"/>
				<path id="path5629_3_" fill="#496376" d="M277.087,101.055c0,0,0.012-4.107,0-6.396c-0.004-0.788,0.407-1.514,1.134-1.513 c3.343,0.008,7.434,0.012,10.468,0.058c0.619,0.009,1.182,0.806,1.191,1.425c0.034,2.198-0.029,6.484-0.029,6.484l-0.872,0.029 c0,0,0.005-2.966-0.029-4.536c-0.089-0.627-0.585-0.876-0.959-0.872c-0.908-0.038-2.733,0-2.733,0l-1.628,1.425l-1.716-1.454 c0,0-1.765-0.033-2.878-0.029c-0.626,0.003-1.159,0.285-1.163,1.279c0.002,1.549,0.029,4.114,0.029,4.114L277.087,101.055z"/>
				<circle id="circle315_3_" fill="#FFFFFF" cx="283.533" cy="94.949" r="1.3"/>
				<line id="polyline322_3_" fill="none" stroke="#496376" x1="278.033" y1="109.949" x2="276.533" y2="111.449"/>
				<line id="polyline324_3_" fill="none" stroke="#496376" x1="289.033" y1="109.949" x2="290.533" y2="111.449"/>
				<polyline id="polyline326_3_" fill="none" stroke="#496376" stroke-width="0.5" points="278.033,90.949 279.533,89.249 287.533,89.249 289.033,90.949"/>
				<polyline id="polyline328_3_" fill="none" stroke="#496376" stroke-width="0.5" points="281.033,89.249 281.033,90.449 282.033,91.449 284.533,91.449 285.533,90.449 285.533,89.249"/>
				<circle fill="#FFFFFF" cx="279.243" cy="105.998" r="1.05"/>
				<circle fill="#FFFFFF" cx="287.824" cy="105.998" r="1.05"/>
			</g>
			<g>
				<path id="path5625_4_" fill="#FFFFFF" d="M168.054,147.735c-0.067-1.44,0-4.478,0-4.478l3.838-0.029l2.588,2.152l2.646-2.123 h3.635c0,0-0.012,2.98,0,4.449c-0.076,0.637-0.417,1.098-1.076,1.162c-3.439-0.02-6.9,0.015-10.583-0.059 C168.407,148.761,168.126,148.402,168.054,147.735z"/>
				<path id="path5627_4_" fill="#FFFFFF" d="M168.054,141.048l12.735,0.029v1.687h-3.867l-2.384,1.948l-2.442-1.948h-4.071 L168.054,141.048z"/>
				<path id="path5629_4_" fill="#FFFFFF" d="M168.054,141.106c0,0,0.012-4.107,0-6.396c-0.004-0.788,0.407-1.514,1.134-1.513 c3.343,0.008,7.434,0.012,10.468,0.058c0.619,0.009,1.182,0.806,1.191,1.425c0.034,2.198-0.029,6.484-0.029,6.484l-0.872,0.029 c0,0,0.005-2.966-0.029-4.536c-0.089-0.627-0.585-0.876-0.959-0.872c-0.908-0.038-2.733,0-2.733,0l-1.628,1.425l-1.716-1.454 c0,0-1.765-0.033-2.878-0.029c-0.626,0.003-1.159,0.285-1.163,1.279c0.002,1.549,0.029,4.114,0.029,4.114L168.054,141.106z"/>
				<circle id="circle315_4_" fill="none" stroke="#4A6477" stroke-width="0.5" stroke-miterlimit="10" cx="174.5" cy="135" r="1.3"/>
				<line id="polyline322_4_" fill="none" stroke="#FFFFFF" x1="169" y1="150" x2="167.5" y2="151.5"/>
				<line id="polyline324_4_" fill="none" stroke="#FFFFFF" x1="180" y1="150" x2="181.5" y2="151.5"/>
				<polyline id="polyline326_4_" fill="none" stroke="#FFFFFF" stroke-width="0.5" points="169,131 170.5,129.3 178.5,129.3 180,131"/>
				<polyline id="polyline328_4_" fill="none" stroke="#FFFFFF" stroke-width="0.5" points="172,129.3 172,130.5 173,131.5 175.5,131.5 176.5,130.5 176.5,129.3"/>
				<circle fill="none" stroke="#4A6477" stroke-width="0.5" stroke-miterlimit="10" cx="170.21" cy="146.049" r="1.05"/>
				<circle fill="none" stroke="#4A6477" stroke-width="0.5" stroke-miterlimit="10" cx="178.791" cy="146.049" r="1.05"/>
			</g>
			<g>
				<path id="path5625_5_" fill="#FFFFFF" d="M277.054,147.735c-0.067-1.44,0-4.478,0-4.478l3.838-0.029l2.588,2.152l2.646-2.123 h3.635c0,0-0.012,2.98,0,4.449c-0.076,0.637-0.417,1.098-1.076,1.162c-3.439-0.02-6.9,0.015-10.583-0.059 C277.407,148.761,277.126,148.402,277.054,147.735z"/>
				<path id="path5627_5_" fill="#FFFFFF" d="M277.054,141.048l12.735,0.029v1.687h-3.867l-2.384,1.948l-2.442-1.948h-4.071 L277.054,141.048z"/>
				<path id="path5629_5_" fill="#FFFFFF" d="M277.054,141.106c0,0,0.012-4.107,0-6.396c-0.004-0.788,0.407-1.514,1.134-1.513 c3.343,0.008,7.434,0.012,10.468,0.058c0.619,0.009,1.182,0.806,1.191,1.425c0.034,2.198-0.029,6.484-0.029,6.484l-0.872,0.029 c0,0,0.005-2.966-0.029-4.536c-0.089-0.627-0.585-0.876-0.959-0.872c-0.908-0.038-2.733,0-2.733,0l-1.628,1.425l-1.716-1.454 c0,0-1.765-0.033-2.878-0.029c-0.626,0.003-1.159,0.285-1.163,1.279c0.002,1.549,0.029,4.114,0.029,4.114L277.054,141.106z"/>
				<circle id="circle315_5_" fill="none" stroke="#4A6477" stroke-width="0.5" stroke-miterlimit="10" cx="283.5" cy="135" r="1.3"/>
				<line id="polyline322_5_" fill="none" stroke="#FFFFFF" x1="278" y1="150" x2="276.5" y2="151.5"/>
				<line id="polyline324_5_" fill="none" stroke="#FFFFFF" x1="289" y1="150" x2="290.5" y2="151.5"/>
				<polyline id="polyline326_5_" fill="none" stroke="#FFFFFF" stroke-width="0.5" points="278,131 279.5,129.3 287.5,129.3 289,131"/>
				<polyline id="polyline328_5_" fill="none" stroke="#FFFFFF" stroke-width="0.5" points="281,129.3 281,130.5 282,131.5 284.5,131.5 285.5,130.5 285.5,129.3"/>
				<circle fill="none" stroke="#4A6477" stroke-width="0.5" stroke-miterlimit="10" cx="279.21" cy="146.049" r="1.05"/>
				<circle fill="none" stroke="#4A6477" stroke-width="0.5" stroke-miterlimit="10" cx="287.791" cy="146.049" r="1.05"/>
			</g>
		</g>
		<g id="Layer_9">
			<path fill="#A8AAAC" d="M332.08,49.544L332.08,49.544l-13.117,0c-0.004,0-0.006,0-0.008,0c-1.24,0-2.244,1.004-2.244,2.243 v3.375v0.928v12.363h17.594V51.787C334.305,50.555,333.312,49.555,332.08,49.544z M318.133,52.952 c0-1.039,0.84-1.881,1.881-1.881c0.002,0,0.004,0,0.004,0v0h11.002v0c1.031,0.009,1.865,0.847,1.865,1.881v2.21h-14.752V52.952 z M332.885,66.927h-14.752v-3.629h14.752V66.927z M318.133,62.369V56.09h14.752v6.279H318.133z"/>
			<rect x="322.536" y="52.689" fill="#A8AAAC" width="5.944" height="0.791"/>
			<circle fill="#A8AAAC" cx="320.987" cy="65.157" r="0.927"/>
			<circle fill="#A8AAAC" cx="330.031" cy="65.253" r="0.927"/>
			<path fill="#A8AAAC" d="M319.627,66.98c-0.642,0-1.162,0.52-1.162,1.163v1.582c0,0.642,0.521,1.163,1.162,1.163 c0.643,0,1.163-0.521,1.163-1.163v-1.582C320.79,67.5,320.27,66.98,319.627,66.98z"/>
			<path fill="#A8AAAC" d="M331.39,66.98c-0.642,0-1.163,0.52-1.163,1.163v1.582c0,0.642,0.521,1.163,1.163,1.163 s1.163-0.521,1.163-1.163v-1.582C332.553,67.5,332.031,66.98,331.39,66.98z"/>
			<rect x="316.36" y="54.299" fill="#A8AAAC" width="0.703" height="5.625"/>
			<rect x="333.953" y="54.139" fill="#A8AAAC" width="0.703" height="5.625"/>
		</g>
		<g id="food2016">
			<g id="Layer_11">
				<g>
					<path fill="#A7A9AC" d="M525.74,11.157c-5.555,0-10.059,4.504-10.059,10.06c0,5.556,4.504,10.06,10.059,10.06
						c5.557,0,10.061-4.504,10.061-10.06C535.801,15.661,531.297,11.157,525.74,11.157 M525.74,29.62
						c-4.641,0-8.402-3.762-8.402-8.403c0-4.642,3.762-8.404,8.402-8.404c4.642,0,8.404,3.762,8.404,8.404
						C534.145,25.858,530.382,29.62,525.74,29.62"/>
					<path fill="#A7A9AC" d="M525.74,14.342c-3.791,0-6.874,3.083-6.874,6.875c0,3.791,3.083,6.875,6.874,6.875
						c3.793,0,6.876-3.083,6.876-6.875C532.616,17.425,529.533,14.342,525.74,14.342"/>
					<path fill="#A7A9AC" d="M514.113,9.943c-0.197,0.012-0.346,0.181-0.335,0.377l0.292,4.832
						c-0.105,0.083-0.369,0.261-0.782,0.394l-0.136-5.248c-0.004-0.196-0.163-0.325-0.364-0.338
						c-0.198,0.005-0.353,0.185-0.348,0.382l0.139,5.347c-0.114,0.011-0.232,0.017-0.357,0.017c-0.132,0-0.255-0.007-0.372-0.018
						l0.14-5.39c0.004-0.197-0.15-0.37-0.348-0.376c-0.198,0.008-0.361,0.13-0.364,0.327l-0.137,5.291
						c-0.438-0.147-0.693-0.347-0.771-0.415l0.271-4.805c0.012-0.196-0.139-0.364-0.335-0.375c-0.215-0.015-0.364,0.14-0.376,0.335
						l-0.358,6.345c0,1.169,0.832,2.018,2.067,2.187c0.021,0.003,0.043,0.002,0.063,0.005l-0.351,11.667
						c0,0.525,0.425,0.95,0.95,0.95c0.524,0,0.949-0.425,0.949-0.95l-0.47-11.67c1.25-0.161,2.091-1.014,2.091-2.209l-0.383-6.325
						C514.477,10.081,514.325,9.925,514.113,9.943"/>
					<path fill="#A7A9AC" d="M539.576,9.939c0,0-0.654,0.033-0.654,0.356c0,0-3.562,11.062,0,11.062c0,0-0.006,0.047-0.019,0.219
						l-0.659,10.092h1.307c0.296,0,0.796-0.239,0.796-0.534v-20.66C540.347,10.179,539.871,9.939,539.576,9.939"/>
				</g>
				<g id="Layer_12">
				</g>
			</g>
			<g id="Layer_13">
				<g>
					<path fill="#A7A9AC" d="M574.708,11.052c-5.548,0-10.046,4.529-10.046,10.116s4.498,10.115,10.046,10.115
						c5.55,0,10.049-4.528,10.049-10.115S580.258,11.052,574.708,11.052 M574.708,29.617c-4.635,0-8.392-3.782-8.392-8.449
						c0-4.668,3.757-8.451,8.392-8.451c4.637,0,8.394,3.783,8.394,8.451C583.102,25.835,579.345,29.617,574.708,29.617"/>
					<path fill="#A7A9AC" d="M574.708,14.254c-3.785,0-6.865,3.101-6.865,6.914c0,3.812,3.08,6.912,6.865,6.912
						c3.787,0,6.868-3.1,6.868-6.912C581.576,17.355,578.495,14.254,574.708,14.254"/>
					<path fill="#A7A9AC" d="M563.095,9.831c-0.196,0.012-0.346,0.182-0.334,0.379l0.292,4.859
						c-0.106,0.083-0.369,0.263-0.783,0.396l-0.135-5.277c-0.004-0.197-0.163-0.327-0.363-0.34
						c-0.197,0.005-0.352,0.187-0.348,0.384l0.139,5.376c-0.114,0.012-0.231,0.018-0.357,0.018c-0.131,0-0.253-0.008-0.371-0.018
						l0.14-5.42c0.004-0.198-0.15-0.372-0.348-0.377c-0.197,0.008-0.36,0.131-0.364,0.328l-0.136,5.321
						c-0.438-0.148-0.693-0.35-0.771-0.417l0.271-4.832c0.012-0.197-0.139-0.367-0.334-0.378c-0.214-0.015-0.364,0.141-0.376,0.337
						l-0.358,6.38c0,1.176,0.832,2.029,2.066,2.198c0.021,0.004,0.043,0.003,0.063,0.005l-0.351,11.732
						c0,0.528,0.424,0.955,0.949,0.955c0.522,0,0.948-0.427,0.948-0.955l-0.471-11.735c1.248-0.162,2.089-1.02,2.089-2.222
						l-0.382-6.359C563.459,9.97,563.307,9.813,563.095,9.831"/>
					<path fill="#A7A9AC" d="M588.527,9.828c0,0-0.652,0.033-0.652,0.358c0,0-3.558,11.123,0,11.123c0,0-0.006,0.047-0.019,0.22
						l-0.658,10.148h1.306c0.294,0,0.795-0.24,0.795-0.537V10.365C589.298,10.068,588.822,9.828,588.527,9.828"/>
					<path fill="none" stroke="#FFFFFF" stroke-width="1.7" stroke-miterlimit="10" d="M573.191,25.395l-0.061-7.896h3.143
						c1.018,0,1.811,0.85,1.811,1.873s-0.855,1.873-1.871,1.873h-4.943"/>

						<line fill="none" stroke="#FFFFFF" stroke-width="1.7" stroke-miterlimit="10" x1="571.269" y1="23.407" x2="578.149" y2="23.407"/>
				</g>
			</g>
			<g id="Layer_14">
				<g>
					<path fill="#A7A9AC" d="M634.556,12.294c0.607-0.45,1.326-0.677,2.082-0.65c0.881,0.031,1.695,0.402,2.295,1.045
						c0.435,0.464,0.712,1.032,0.826,1.642l-0.307-0.063c-0.117-0.025-0.238,0.012-0.323,0.096
						c-0.085,0.085-0.122,0.208-0.098,0.325l0.41,1.989c0.029,0.142,0.142,0.254,0.284,0.28c0.061,0.012,0.119,0.006,0.174-0.011
						c0.077-0.025,0.146-0.076,0.191-0.147l1.085-1.681c0.064-0.098,0.076-0.223,0.029-0.33c-0.045-0.108-0.14-0.189-0.256-0.212
						l-0.455-0.093c-0.097-0.849-0.445-1.645-1.039-2.281c-0.73-0.783-1.722-1.234-2.791-1.271
						c-0.907-0.033-1.807,0.249-2.534,0.791c-0.159,0.118-0.19,0.341-0.075,0.5C634.174,12.38,634.396,12.413,634.556,12.294"/>
					<path fill="#A7A9AC" d="M630.517,27.636c-0.606,0.45-1.326,0.676-2.082,0.649c-0.879-0.03-1.694-0.401-2.295-1.044
						c-0.434-0.464-0.711-1.032-0.824-1.642l0.305,0.063c0.119,0.025,0.238-0.011,0.325-0.097c0.083-0.085,0.121-0.207,0.096-0.325
						l-0.41-1.989c-0.029-0.142-0.142-0.252-0.284-0.279c-0.06-0.011-0.119-0.006-0.173,0.011c-0.077,0.025-0.146,0.077-0.191,0.147
						l-1.087,1.681c-0.063,0.099-0.074,0.223-0.029,0.331c0.047,0.108,0.142,0.188,0.257,0.212l0.457,0.095
						c0.095,0.848,0.444,1.644,1.038,2.279c0.73,0.783,1.722,1.235,2.791,1.271c0.907,0.032,1.807-0.249,2.534-0.792
						c0.158-0.118,0.191-0.341,0.073-0.499C630.899,27.549,630.677,27.517,630.517,27.636"/>
					<path fill="#A7A9AC" d="M638.039,18.521c-3.118,0-5.647,2.529-5.647,5.649c0,3.118,2.529,5.646,5.647,5.646
						c3.119,0,5.648-2.528,5.648-5.646C643.688,21.05,641.158,18.521,638.039,18.521 M638.039,28.887
						c-2.605,0-4.717-2.112-4.717-4.716c0-2.607,2.111-4.718,4.717-4.719c2.605,0,4.719,2.112,4.717,4.718
						C642.756,26.775,640.645,28.887,638.039,28.887"/>
					<path fill="#A7A9AC" d="M638.039,20.31c-2.129,0-3.859,1.732-3.859,3.861c0,2.127,1.73,3.858,3.859,3.858
						c2.128,0,3.86-1.731,3.86-3.858C641.9,22.042,640.167,20.31,638.039,20.31"/>
					<path fill="#A7A9AC" d="M632.392,15.484c0-3.12-2.529-5.648-5.649-5.648c-3.117,0-5.646,2.528-5.646,5.648
						c0,3.118,2.528,5.646,5.646,5.646C629.863,21.131,632.392,18.603,632.392,15.484 M622.027,15.484
						c0-2.606,2.111-4.718,4.716-4.718c2.606,0,4.72,2.112,4.719,4.718c0,2.605-2.112,4.716-4.719,4.718
						C624.138,20.2,622.027,18.089,622.027,15.484"/>
					<path fill="#A7A9AC" d="M630.605,15.484c0-2.128-1.732-3.861-3.861-3.861c-2.127,0-3.86,1.732-3.86,3.861
						c0.002,2.127,1.733,3.859,3.86,3.859C628.872,19.343,630.605,17.612,630.605,15.484"/>
					<path fill="#A7A9AC" d="M612.28,9.507c-0.197,0.012-0.347,0.181-0.335,0.378l0.293,4.843c-0.107,0.084-0.37,0.263-0.785,0.396
						l-0.136-5.26c-0.005-0.197-0.164-0.326-0.364-0.34c-0.198,0.005-0.354,0.186-0.35,0.383l0.14,5.359
						c-0.114,0.011-0.233,0.018-0.359,0.018c-0.131,0-0.254-0.008-0.371-0.018l0.139-5.403c0.004-0.197-0.15-0.372-0.349-0.376
						c-0.198,0.008-0.361,0.13-0.365,0.327l-0.137,5.304c-0.44-0.148-0.696-0.348-0.773-0.416l0.273-4.816
						c0.011-0.197-0.14-0.366-0.337-0.377c-0.215-0.017-0.366,0.14-0.376,0.336l-0.36,6.359c0,1.172,0.834,2.023,2.073,2.192
						c0.021,0.003,0.043,0.002,0.063,0.005l-0.353,11.695c0,0.526,0.426,0.953,0.953,0.953c0.525,0,0.952-0.427,0.952-0.953
						l-0.472-11.698c1.252-0.161,2.097-1.016,2.097-2.215l-0.385-6.339C612.646,9.646,612.493,9.489,612.28,9.507"/>
					<path fill="#A7A9AC" d="M617.809,9.504c0,0-0.654,0.034-0.654,0.357c0,0-3.571,11.088,0,11.088c0,0-0.013,0.047-0.026,0.22
						l-0.666,10.116h1.31c0.296,0,0.81-0.24,0.81-0.536V10.039C618.581,9.744,618.105,9.504,617.809,9.504"/>
				</g>
			</g>
		</g>
		<g id="train_helpers">
			<g id="ARROWS_COMMON">
				<polyline fill="#BBBCC0" points="0,294.989 0,249.989 45,249.989"/>
				<polygon opacity="0.5" fill="#FFFFFF" points="10.562,255.993 5.531,255.552 5.972,260.582 7.629,258.925 9.63,260.927
				10.905,259.652 8.904,257.65"/>
				<polygon fill="#FFFFFF" points="13.067,267.679 18.098,268.12 17.657,263.089 16,264.746 13.999,262.745 12.724,264.02
				14.725,266.021"/>
				<rect x="49.762" y="249.989" fill="#FFFFFF" width="45" height="45"/>
				<polygon opacity="0.53" fill="#245168" points="60.324,255.993 55.293,255.552 55.734,260.582 57.391,258.925 59.392,260.927
					60.667,259.652 58.666,257.65"/>
				<polygon fill="#245168" points="62.829,267.679 67.861,268.12 67.419,263.089 65.762,264.746 63.761,262.745 62.486,264.02
					64.487,266.021"/>
				<polygon id="серая_тень" fill="#F2F2F2" points="49.762,292.596 49.762,294.989 94.762,249.989 92.369,249.989"/>
				<g transform="translate(200, 0)">
					<rect x="49.762" y="249.989" fill="#FFFFFF" width="45" height="45"/>
					<polyline fill="#FCFCFC" points="50,294.989 95,249.989 95,294.989"/>
					<polygon opacity="0.53" fill="#245168" points="60.324,255.993 55.293,255.552 55.734,260.582 57.391,258.925 59.392,260.927
					60.667,259.652 58.666,257.65"/>
					<polygon fill="#245168" points="62.829,267.679 67.861,268.12 67.419,263.089 65.762,264.746 63.761,262.745 62.486,264.02
						64.487,266.021"/>
                    <!-- <polygon id="серая_тень" fill="#F2F2F2" points="49.762,292.596 49.762,294.989 94.762,249.989 92.369,249.989"/> -->
				</g>

				<polyline fill="#FFFFFF" points="149.969,249.989 194.969,249.989 194.969,294.989"/>
				<polygon opacity="0.53" fill="#245168" points="186.66,260.057 187.102,255.025 182.072,255.467 183.729,257.124
					181.726,259.125 183.001,260.4 185.003,258.399"/>
				<polygon fill="#245168" points="174.974,262.563 174.533,267.594 179.564,267.152 177.907,265.495 179.908,263.494
					178.634,262.219 176.632,264.22"/>
				<polyline fill="#FFFFFF" points="100.834,295.07 100.834,250.07 145.834,250.07"/>
				<polygon opacity="0.53" fill="#245168" points="111.395,256.074 106.364,255.633 106.805,260.663 108.463,259.006
					110.464,261.008 111.739,259.733 109.738,257.731"/>
				<polygon fill="#245168" points="113.901,267.76 118.932,268.201 118.49,263.17 116.833,264.827 114.832,262.826
					113.557,264.101 115.558,266.103"/>
			</g>
		</g>
		<g transform="translate(-77,237)">
			<g id="man">
				<path fill="#A7A9AC" d="M99.9,102.6c2.9,0,5.3-2.7,5.3-6.1c0-3.3-2.4-6.1-5.3-6.1c-2.9,0-5.3,2.7-5.3,6.1 C94.6,99.9,97,102.6,99.9,102.6L99.9,102.6z M99.9,101.1c-0.8,0-1.5-0.7-1.5-1.5h3C101.4,100.4,100.8,101.1,99.9,101.1L99.9,101.1z M96.4,96c0.8,0.6,2.3,0.4,3.6-0.6c0.7-0.5,1.2-1,1.5-1.6c1.3,0.6,2.3,1.9,2.3,3.5c0,0.7-0.2,1.4-0.6,2l-3.2-1.3l-3.2,1.3 c-0.4-0.6-0.6-1.3-0.6-2C96.1,96.9,96.2,96.4,96.4,96L96.4,96z M96.4,96"/>
				<path fill="#A7A9AC" d="M106,104.1h-3l-2.2,5.3v-5.3h-1.6v5.3l-2.2-5.3h-3c-1.7,0-3,1.4-3,3v7.9h1.5h15.1h1.5v-7.9 C109,105.5,107.6,104.1,106,104.1z"/>
			</g>
			<g id="girl" transform="translate(12,0)">
				<path fill="#A7A9AC" d="M131.5,115h15.7l-3.8-6.8v-2.7l2.6,3.7l1-0.7l-3.7-5.2c-0.2-0.9-1-1.6-1.9-1.6h-4.1c-0.9,0-1.7,0.7-1.9,1.6 l-3.7,5.2l1,0.7l2.6-3.7v2.7L131.5,115z"/>
				<path fill="#A7A9AC" d="M146.4,97c-0.5-0.7-1.4-1.1-2.2-1.2c0-0.1,0-0.1,0-0.2c0-2.7-2.2-4.9-4.9-4.9s-4.9,2.2-4.9,4.9 c0,0.1,0,0.1,0,0.2c-0.8,0.2-1.7,0.5-2.2,1.2c-1,1.4-0.8,3.5,1.3,3.7c0,0-0.3-2.5,1.1-3.8c0.6,2.1,2.5,3.6,4.7,3.6 c2.3,0,4.1-1.5,4.7-3.6c1.4,1.3,1.1,3.7,1.1,3.7C147.2,100.5,147.4,98.4,146.4,97z M139.3,99.3c-1.9,0-3.5-1.5-3.7-3.4 c1.2-0.6,1.5-1.8,1.5-1.8s0.5,0.5,0.4,1.5c0,0,1.5-0.1,1.8-1.5c0,0,0.9,0.9,0.7,1.5c0,0,1.5-0.3,2.9-0.9c0.1,0.3,0.1,0.6,0.1,0.8 C143.1,97.6,141.4,99.3,139.3,99.3z"/>
			</g>
			<g id="woman" transform="translate(29,0)">
				<path fill="#A7A9AC" d="M178.1,104.1h-5l3.9,2.7l-3.9,5.5l-3.9-5.5l3.9-2.7h-5c-1.7,0-3,1.4-3,3v7.9h1.5h13.1h1.5v-7.9 C181.2,105.5,179.8,104.1,178.1,104.1L178.1,104.1z M178.1,104.1"/>
				<path fill="#A7A9AC" d="M168,102.5h5.1c-1.9,0-3.4-1.5-3.4-3.4v-1.7c3.4,0,3.4-3.4,3.4-3.4s0,3.4,3.4,3.4v1.7c0,1.9-1.5,3.4-3.4,3.4 h5.1c0.9,0,1.7-0.8,1.7-1.7c-0.9,0-1.7-0.8-1.7-1.7v-3.4c0-2.8-2.3-5.1-5.1-5.1c-2.8,0-5.1,2.3-5.1,5.1v3.4c0,0.9-0.8,1.7-1.7,1.7 C166.3,101.7,167.1,102.5,168,102.5L168,102.5z M168,102.5"/>
			</g>
			<g id="boy" transform="translate(44,0)">
				<path fill="#A7A9AC" d="M215.7,108.4l-3.7-5.2c-0.2-0.9-1-1.6-1.9-1.6h-4.1c-0.9,0-1.7,0.7-1.9,1.6l-3.7,5.2l1,0.7l2.6-3.7v2.6v0.3 v6.6h3v-4.6h2.2v4.6h3v-6.6v-0.3v-2.6l2.6,3.7L215.7,108.4z"/>
				<path fill="#A7A9AC" d="M208,90.7c-2.7,0-4.9,2.2-4.9,4.9c0,2.7,2.2,4.9,4.9,4.9s4.9-2.2,4.9-4.9C212.9,92.9,210.7,90.7,208,90.7z M208,99.3c-1.9,0-3.5-1.5-3.7-3.4c1.2-0.6,1.5-1.8,1.5-1.8s0.5,0.5,0.4,1.5c0,0,1.5-0.1,1.8-1.5c0,0,0.9,0.9,0.7,1.5 c0,0,1.5-0.3,2.9-0.9c0.1,0.3,0.1,0.6,0.1,0.8C211.7,97.6,210,99.3,208,99.3z"/>
			</g>
			<g id="baby" transform="translate(57,0)">
				<path fill="#A7A9AC" d="M246.2,108.6c1.6,1,3.2,2,4.7,2.9c0.8-1.1,1.3-2.4,1.4-3.8l0.2-3.7C249.7,106.1,247.3,107.8,246.2,108.6z"/>
				<path fill="#A7A9AC" d="M237.1,103.5c0.1,2.2,0.2,4.3,0.2,4.3c0.3,3.9,3.5,7,7.5,7c2.2,0,4.1-0.9,5.5-2.4 C245.7,109.6,240.4,105.9,237.1,103.5z"/>
				<circle fill="#A7A9AC" cx="244.8" cy="99.6" r="1.5"/>
				<circle fill="#A7A9AC" cx="247" cy="96.1" r="0.5"/>
				<circle fill="#A7A9AC" cx="242.7" cy="96.1" r="0.5"/>
				<path fill="#A7A9AC" d="M244.8,90.6c-4.4,0-8,3.6-8,8c0,0.2,0.1,1.8,0.2,3.6c2,1.5,5.1,3.7,8.3,5.9c0.9-0.6,3.9-2.7,7.3-5.4 l0.2-4.1C252.8,94.1,249.2,90.6,244.8,90.6z M249.8,99.1c-0.1,0-0.2,0-0.2,0c-0.6,2.1-2.5,3.6-4.8,3.6c-2.3,0-4.1-1.5-4.8-3.6 c-0.1,0-0.2,0-0.2,0c-0.8,0-1.5-0.7-1.5-1.5s0.7-1.5,1.5-1.5c0.1,0,0.2,0,0.2,0c0.6-2.1,2.5-3.6,4.8-3.6c2.3,0,4.1,1.5,4.8,3.6 c0.1,0,0.2,0,0.2,0c0.8,0,1.5,0.7,1.5,1.5S250.6,99.1,249.8,99.1z"/>
			</g>
			<g id="foodPlate" transform="translate(0,-13)">
				<path fill="#A7A9AC" d="M99.6,145c-5.8,0-10.6,4.7-10.6,10.6c0,4.3,2.6,8.1,6.4,9.7l0.4-5.3c-1.1-0.3-1.9-1.2-1.9-2.4v0 c0-0.2,0-0.3,0-0.4c0-0.1,0-0.1,0-0.2v-6c0-0.3,0.2-0.5,0.5-0.5s0.5,0.2,0.5,0.5v6c0.3,0.1,0.7,0.2,1.1,0.3c0-0.1-0.1-0.2-0.1-0.3 v-6c0-0.3,0.2-0.5,0.5-0.5s0.5,0.2,0.5,0.5v6c0,0.1,0,0.2-0.1,0.3c0.4-0.1,0.8-0.2,1.1-0.3v-6c0-0.3,0.2-0.5,0.5-0.5 s0.5,0.2,0.5,0.5v6c0,0.1,0,0.1,0,0.2c0,0.1,0,0.2,0,0.4v0c0,1.2-0.8,2.1-1.9,2.4l0.5,6c0.7,0.1,1.4,0.2,2.1,0.2 c1.1,0,2.2-0.2,3.2-0.5l0.2-3.6c0-0.2,0-0.2,0-0.2c-3.6,0,0-11.1,0-11.1c0-0.3,0.7-0.4,0.7-0.4c0.3,0,0.8,0.2,0.8,0.5v14 c3.4-1.8,5.7-5.3,5.7-9.4C110.1,149.7,105.4,145,99.6,145z"/>
			</g>
			<g id="foodMenu" transform="translate(12,-13)">
				<path fill="#AAAAAA" d="M146,167h-14v-18h14V167z M133,166h12v-16h-12V166z"/>
				<polygon fill="#AAAAAA" points="132.7,150 132.3,149 142,144.9 142,149 141,149 141,146.4"/>
				<rect x="135" y="155" fill="#AAAAAA" width="8" height="1"/>
				<rect x="135" y="158" fill="#AAAAAA" width="8" height="1"/>
				<rect x="135" y="161" fill="#AAAAAA" width="8" height="1"/>
			</g>
			<g id="pack" transform="translate(0,-13)">
				<path fill="#E21A1A" d="M107,207H88v-15h19V207z M90,205h15v-11H90V205z"/>
				<path fill="#E21A1A" d="M102.3,193h-2c0-1-1.4-3.1-3.1-3.1s-3.1,2.1-3.1,3.1h-2c0-2,2.3-5.1,5.1-5.1S102.3,191,102.3,193z"/>
			</g>
			<g id="trolley" transform="translate(12,-13)">
				<path fill="#E21A1A" d="M147.4,202h-14.2l-3.3-11.6l-2.7-0.7l0.5-1.9l3.8,1l0.9,3.2h17.5L147.4,202z M134.7,200h11.1l1.5-6H133 L134.7,200z"/>
				<path fill="#E21A1A" d="M136.1,208.7c-1.4,0-2.5-1.1-2.5-2.5s1.1-2.5,2.5-2.5s2.5,1.1,2.5,2.5S137.4,208.7,136.1,208.7z M136.1,205.7c-0.3,0-0.5,0.2-0.5,0.5s0.2,0.5,0.5,0.5s0.5-0.2,0.5-0.5S136.3,205.7,136.1,205.7z"/>
				<path fill="#E21A1A" d="M144.7,208.7c-1.4,0-2.5-1.1-2.5-2.5s1.1-2.5,2.5-2.5s2.5,1.1,2.5,2.5S146.1,208.7,144.7,208.7z M144.7,205.7c-0.3,0-0.5,0.2-0.5,0.5s0.2,0.5,0.5,0.5s0.5-0.2,0.5-0.5S145,205.7,144.7,205.7z"/>
			</g>
			<g id="arrowRight" transform="translate(0,-39)">
				<polygon fill="#E21A1A" points="104,268 103.3,267.3 108,262.5 103.3,257.8 104,257.1 109.4,262.5"/>
				<rect x="91" y="262" fill="#E21A1A" width="17" height="1"/>
			</g>
			<g id="arrowDown" transform="translate(12,-39)">
				<polygon fill="#E21A1A" points="140.6,265.3 137,261.7 137.7,261 140.6,263.9 143.6,261 144.3,261.7"/>
			</g>
			<g id="arrowRight2" transform="translate(0,-39)">
				<polygon fill="#E21A1A" points="99,310.5 99,296.2 106.2,303.3 	"/>
			</g>
			<g id="arrowRight2Small" transform="translate(12,-39)">
				<polygon fill="#E21A1A" points="138,308.5 138,298.6 142.9,303.6"/>
			</g>
			<g id="redMan" transform="translate(-2,-39)">
				<circle fill="#E21A1A" cx="102.7" cy="343.6" r="3.9"/>
				<path fill="#E21A1A" d="M109.8,353c-1.3-2-3.9-4.1-6.9-4.1s-5.6,2.1-6.9,4.1H109.8z"/>
			</g>
			<g id="redManSmall" transform="translate(10,-39)">
				<circle fill="#E21A1A" cx="140.8" cy="345" r="3.3"/>
				<path fill="#E21A1A" d="M146.8,353c-1.1-2-3.3-3.5-5.8-3.5c-2.5,0-4.7,1.5-5.8,3.5H146.8z"/>
			</g>
			<g id="arrowLeft" transform="translate(-2,-55)">
				<polygon fill="#E21A1A" points="101.5,403.5 96.5,398.5 101.5,393.5 102.2,394.2 97.9,398.5 102.2,402.8 		"/>
				<rect x="97" y="398" fill="#E21A1A" width="12" height="1"/>
			</g>
			<g id="redClose" transform="translate(10,-55)">
				<rect x="135" y="399" transform="matrix(0.7071 0.7071 -0.7071 0.7071 323.8091 17.3193)" fill="#E21A1A" width="12" height="1"/>
				<rect x="140.5" y="393.5" transform="matrix(0.7071 0.7071 -0.7071 0.7071 323.7871 17.3088)" fill="#E21A1A" width="1" height="12"/>
			</g>
			<g id="bankCard" transform="translate(-8,-70)">
				<path d="M121.5,465h-23c-3,0-5.5-2.5-5.5-5.5v-12c0-3,2.5-5.5,5.5-5.5h23c3,0,5.5,2.5,5.5,5.5v12C127,462.5,124.5,465,121.5,465z M98.5,443c-2.5,0-4.5,2-4.5,4.5v12c0,2.5,2,4.5,4.5,4.5h23c2.5,0,4.5-2,4.5-4.5v-12c0-2.5-2-4.5-4.5-4.5H98.5z"/>
				<rect x="94" y="448" width="33" height="6"/>
			</g>
			<g id="clock" transform="translate(-34,-68)">
				<path d="M187,464.7c-7.5,0-13.7-6.1-13.7-13.7s6.1-13.7,13.7-13.7s13.7,6.1,13.7,13.7S194.5,464.7,187,464.7z M187,439.3 c-6.4,0-11.7,5.2-11.7,11.7s5.2,11.7,11.7,11.7s11.7-5.2,11.7-11.7S193.4,439.3,187,439.3z"/>
				<polygon points="194,452 186,452 186,444 187,444 187,451 194,451"/>
			</g>
		</g>

		<!-- багаж -->
		<g id="suitcase" fill="#A7A9AC" transform="scale(.11) translate(6020,85)">
			<path d="m  40,32 0,160 -16,0 a  24,24 0 0 1 -24,-24 l 0,-112  a  24,24 0 0 1  24,-24 z" />
			<rect x="48" y="32" width="143" height="160" />
			<path d="m 200,32 16,0 a  24,24 0 0 1  24,24  l 0,112 a  24,24 0 0 1 -24,24  l -16,0 z" />
			<path d="m  84,30 0,-12 a  18,18 0 0 1 18,-18 l 36,0  a  18,18 0 0 1 18,18  l 0,12 -12,0 0,-12 a   6,6  0 0 0 -6,-6  l -36,0 a   6,6  0 0 0 -6,6   l 0,12 z" />
		</g>

		<g id="suitcaseAdd" fill="#A7A9AC">
			<use xlink:href="#suitcase" transform="translate(-3,78)"></use>
			<g transform="translate(662,90)">
				<g transform="scale(.11)">
					<path style="stroke:#FFFFFF;stroke-width:5" d="m  40,32 0,160 -16,0 a  24,24 0 0 1 -24,-24 l 0,-112  a  24,24 0 0 1  24,-24 z" />
					<rect style="stroke:#FFFFFF;stroke-width:5" x="48" y="32" width="143" height="160" />
					<line x1="44" y1="31" x2="44" y2="190" style="fill:none;stroke:#FFFFFF;stroke-width:10"/>
					<line x1="195" y1="31" x2="195" y2="190" style="fill:none;stroke:#FFFFFF;stroke-width:10"/>
					<g transform="translate(100,150)">
						<path transform="scale(10)" fill="none" stroke="#FFFFFF" stroke-width="1.7" stroke-miterlimit="10" d="M0.191,0.395l-0.061-7.896h3.143 c1.018,0,1.811,0.85,1.811,1.873s-0.855,1.873-1.871,1.873h-4.943"/>
						<line fill="none" stroke="#FFFFFF" stroke-width="12" stroke-miterlimit="10" x1="-15" y1="-17" x2="50" y2="-17"/>
					</g>
					<path style="stroke:#FFFFFF;stroke-width:5" d="m 200,32 16,0 a  24,24 0 0 1  24,24  l 0,112 a  24,24 0 0 1 -24,24  l -16,0 z" />
					<path style="stroke:#FFFFFF;stroke-width:5" d="m  84,30 0,-12 a  18,18 0 0 1 18,-18 l 36,0  a  18,18 0 0 1 18,18  l 0,12 -12,0 0,-12 a   6,6  0 0 0 -6,-6  l -36,0 a   6,6  0 0 0 -6,6   l 0,12 z" />
				</g>
			</g>
		</g>


		<g id="luggageAnimal">
			<path id="path4962" d="m 660.4,66.4 c 0,0 -1.8,-14 8,-13.9 9.9,0.2 8.4,13.9 8.4,13.9 l 11.6,-0 c 0,0 0.8,-13.6 -7,-14.5 -5.3,-0.1 -10,-0 -15.6,-0 -7.5,0.3 -6.6,14.6 -6.6,14.6 z"
			style="fill:#acaeb1;fill-opacity:1;fill-rule:evenodd;stroke:#acaeb1;stroke-width:1px;stroke-linecap:butt;stroke-linejoin:miter;stroke-opacity:1" />
			<line y2="69" x2="689.4" y1="69" x1="658.5" id="line64-6" style="fill:none;stroke:#acaeb1;stroke-width:2" />
			<path style="fill:#acaeb1;fill-opacity:1;stroke:none;stroke-opacity:1" id="path4954-8" d="m 669.2,50.8 0,-1.3 c 0,-1 1.7,-2.4 2.8,-2.4 l 2.5,0 c 1,0 2.6,1.3 2.6,2.4 l 0,1.32 -1.32,0 0,-1.32 c 0,-0.4 -0.9,-1.2 -1.2,-1.2 l -2.5,0 c -0.4,0 -1.5,0.6 -1.5,1.2 l 0,1.32 z"/>
			<path id="cathead" d="m 664.24677,59.288968 c 0.27906,-0.999542 1.08401,-2.918483 1.08401,-2.918483 l 1.79279,4.377724 1.12569,-0.125073 1.29248,-4.210954 c 0,0 0.87744,1.840875 1.12569,2.835098 0.25167,1.007915 1.27326,3.867619 -0.62538,5.836967 -1.14785,1.190595 -3.78117,1.158485 -4.96142,0 -1.6418,-1.611525 -1.16614,-4.605122 -0.83386,-5.795279 z" style="fill:#acaeb1;stroke:#acaeb1;stroke-width:1px;"/>
			<path id="catearright" d="m 669.37793,59.855395 0.34784,-1.193044 0.35796,1.210313 z" style="fill:#FFFFFF;stroke:#FFFFFF;stroke-width:1px;"/>
			<path id="catearleft" d="m 665.11527,60.06826 0.33056,-1.315158 0.38239,1.256196 z" style="fill:#FFFFFF;stroke:#FFFFFF;stroke-width:1px;"/>
			<path id="catnose" d="m 668.51414,63.531841 a 1.0023584,0.7370283 0 0 1 -0.99961,0.737026 1.0023584,0.7370283 0 0 1 -1.00509,-0.73298 1.0023584,0.7370283 0 0 1 0.99409,-0.741049 1.0023584,0.7370283 0 0 1 1.01055,0.728912" style="fill:#FFFFFF;stroke:#FFFFFF;stroke-width:0;"/>
			<path id="cattail" d="m 672.83545,62.957918 c 1.0155,0.166783 2.05232,0.592606 1.83448,2.126324 -0.1919,1.351112 -1.29864,2.055253 -3.12695,1.626012 -0.33932,-0.07966 -0.11096,0.55092 0.16678,0.583697 1.00409,0.118489 2.57021,-0.07542 3.08524,-0.875545 0.60712,-0.943196 0.70247,-2.321609 0.0417,-3.835721 -0.35161,-0.805691 -1.91786,-1.292472 -1.91786,-1.292472 z" style="fill:#acaeb1;stroke:#acaeb1;stroke-width:1px;"/>
		</g>
		<g id="luggageComp" transform="translate(705, 8) scale(.7)">
			<path style="fill:#aaa;" d="M.31.12V35.19H6.42a5.61,5.61,0,0,0,11.1,0h15a5.61,5.61,0,0,0,11.1,0h6.11V.12Z"/>
			<path style="fill:#fff;" d="M3.28,7.93a3.06,3.06,0,0,0-.87,1.88,9,9,0,0,0,0,1.09V23.82a9.06,9.06,0,0,0,0,1.09,3.07,3.07,0,0,0,.87,1.88,3.8,3.8,0,0,0,3,.92h.54V7H6.25a3.81,3.81,0,0,0-3,.92M27.36,9.81h0a3.06,3.06,0,0,0-.87-1.88,3.82,3.82,0,0,0-3-.92H23V27.7h.54a3.81,3.81,0,0,0,3-.92,3.06,3.06,0,0,0,.87-1.88,9.26,9.26,0,0,0,0-1.09V10.9a9.17,9.17,0,0,0,0-1.09M18.57,4.36h0A1.77,1.77,0,0,0,16.8,2.59H13A1.77,1.77,0,0,0,11.2,4.36V7H8.26V27.7H21.51V7H18.57ZM17,7H12.76V4.2H17Z"/>
			<path style="fill:#fff;" d="M29.82,17.78a2.31,2.31,0,0,0-.65,1.42,6.77,6.77,0,0,0,0,.82v9.75a6.84,6.84,0,0,0,0,.82A2.31,2.31,0,0,0,29.82,32a2.87,2.87,0,0,0,2.24.69h.4V17.09h-.4a2.88,2.88,0,0,0-2.24.69M48,19.2h0a2.31,2.31,0,0,0-.65-1.42,2.88,2.88,0,0,0-2.24-.69h-.4V32.7h.4A2.87,2.87,0,0,0,47.34,32,2.31,2.31,0,0,0,48,30.59a7,7,0,0,0,0-.82V20a6.94,6.94,0,0,0,0-.82m-6.63-4.11h0A1.34,1.34,0,0,0,40,13.75h-2.9a1.34,1.34,0,0,0-1.33,1.34v2H33.58V32.7h10V17.09H41.36Zm-1.18,2H37V15h3.2Z"/>
		</g>
		<g id="luggageHand" transform="translate(755, 6) scale(.7)">
			<rect style="fill:#aaa;" y="2.24" width="50" height="35.51"/>
			<path style="fill:#fff;" d="M38,29.67a3.07,3.07,0,0,1-3.1,3.39H15.06A3.07,3.07,0,0,1,12,29.67l1.16-13a3.81,3.81,0,0,1,3.71-3.39H33.17a3.81,3.81,0,0,1,3.71,3.39Z"/>
			<path style="fill:none;stroke:#aaa;stroke-miterlimit:10;stroke-width:0.5px;" d="M16,12.63v7.93c0,1.44.88,2.62,2,2.62h5.34v-3.3h3.18v3.3h5.59c1.08,0,2-1.18,2-2.62V12.63Z"/>
			<path style="fill:#fff;" d="M19.74,13.38V12a3,3,0,0,1,2.63-3.2h5.26A3,3,0,0,1,30.26,12v1.33h1.56V10.14a3,3,0,0,0-2.63-3.2H20.81a3,3,0,0,0-2.63,3.2v3.24Z"/>
		</g>


		<!-- пересадочная искривленная стрелка с человеком -->
		<g id="boyCurveTransfer" transform="translate(0,600)">

			<defs id="svgEditorDefs"><line id="svgEditorLineDefs" style="fill:none;stroke:black;stroke-width:1px;"/><marker id="arrow20-16-right" markerHeight="16" markerUnits="strokeWidth" markerWidth="20" orient="auto" refX="-3" refY="0" viewBox="-15 -5 20 20"><path d="M -15 -5 L 0 0 L -15 5 z" fill="#A7A9AC"/></marker></defs>

			<path transform="translate(0,40)" d="M0.0198996063,19.0113707237a76.35532603,76.35532603,0,0,1,98,2" style="fill:none;stroke:#A7A9AC;stroke-width:1px;marker-end:url(#arrow20-16-right);"  id="e1_circleArc"/>

			<g transform="translate(-160,-38)">				
				<path fill="#A7A9AC" d="M215.7,108.4l-3.7-5.2c-0.2-0.9-1-1.6-1.9-1.6h-4.1c-0.9,0-1.7,0.7-1.9,1.6l-3.7,5.2l1,0.7l2.6-3.7v2.6v0.3 v6.6h3v-4.6h2.2v4.6h3v-6.6v-0.3v-2.6l2.6,3.7L215.7,108.4z"/>
				<path fill="#A7A9AC" d="M208,90.7c-2.7,0-4.9,2.2-4.9,4.9c0,2.7,2.2,4.9,4.9,4.9s4.9-2.2,4.9-4.9C212.9,92.9,210.7,90.7,208,90.7z M208,99.3c-1.9,0-3.5-1.5-3.7-3.4c1.2-0.6,1.5-1.8,1.5-1.8s0.5,0.5,0.4,1.5c0,0,1.5-0.1,1.8-1.5c0,0,0.9,0.9,0.7,1.5 c0,0,1.5-0.3,2.9-0.9c0.1,0.3,0.1,0.6,0.1,0.8C211.7,97.6,210,99.3,208,99.3z"/>
			</g>
		</g>
	</g>
</switch>
</svg>